<?xml version="1.0" encoding="UTF-8" standalone="no"?>
<svg
   viewBox="0 0 512 512"
   version="1.1"
   id="svg1"
   sodipodi:docname="alternet-backward-step.svg"
   width="512"
   height="512"
   inkscape:version="1.4.2 (ebf0e94, 2025-05-08)"
   xmlns:inkscape="http://www.inkscape.org/namespaces/inkscape"
   xmlns:sodipodi="http://sodipodi.sourceforge.net/DTD/sodipodi-0.dtd"
   xmlns="http://www.w3.org/2000/svg"
   xmlns:svg="http://www.w3.org/2000/svg">
  <defs
     id="defs1" />
  <sodipodi:namedview
     id="namedview1"
     pagecolor="#ffffff"
     bordercolor="#000000"
     borderopacity="0.25"
     inkscape:showpageshadow="2"
     inkscape:pageopacity="0.0"
     inkscape:pagecheckerboard="0"
     inkscape:deskcolor="#d1d1d1"
     inkscape:zoom="1.578125"
     inkscape:cx="159.68317"
     inkscape:cy="256"
     inkscape:window-width="1920"
     inkscape:window-height="1010"
     inkscape:window-x="-6"
     inkscape:window-y="-6"
     inkscape:window-maximized="1"
     inkscape:current-layer="svg1" />
  <!--! Font Awesome Free 6.4.0 by @fontawesome - https://fontawesome.com License - https://fontawesome.com/license/free (Icons: CC BY 4.0, Fonts: SIL OFL 1.1, Code: MIT License) Copyright 2023 Fonticons, Inc. -->
  <path
     d="m 363.5,440.61366 c 9.5,7.9 22.8,9.7 34.1,4.4 11.3,-5.3 18.4,-16.6 18.4,-29 V 96.013665 c 0,-12.4 -7.2,-23.7 -18.4,-29 -11.2,-5.3 -24.5,-3.6 -34.1,4.4 l -192,159.999995 -11.5,9.6 V 96.013665 c 0,-17.7 -14.3,-32 -32,-32 -17.7,0 -32,14.3 -32,32 V 416.01366 c 0,17.7 14.3,32 32,32 17.7,0 32,-14.3 32,-32 v -145 l 11.5,9.6 z"
     id="path1" />
</svg>
