<?xml version="1.0" encoding="UTF-8" standalone="no"?>
<svg
   viewBox="0 0 512 512"
   version="1.1"
   id="svg1"
   sodipodi:docname="circle-xmark-red.svg"
   inkscape:version="1.3.2 (091e20e, 2023-11-25, custom)"
   xmlns:inkscape="http://www.inkscape.org/namespaces/inkscape"
   xmlns:sodipodi="http://sodipodi.sourceforge.net/DTD/sodipodi-0.dtd"
   xmlns="http://www.w3.org/2000/svg"
   xmlns:svg="http://www.w3.org/2000/svg">
  <defs
     id="defs1" />
  <sodipodi:namedview
     id="namedview1"
     pagecolor="#ffffff"
     bordercolor="#000000"
     borderopacity="0.25"
     inkscape:showpageshadow="2"
     inkscape:pageopacity="0.0"
     inkscape:pagecheckerboard="0"
     inkscape:deskcolor="#d1d1d1"
     inkscape:zoom="1.1241893"
     inkscape:cx="254.85032"
     inkscape:cy="256.18461"
     inkscape:window-width="1920"
     inkscape:window-height="1010"
     inkscape:window-x="-6"
     inkscape:window-y="-6"
     inkscape:window-maximized="1"
     inkscape:current-layer="svg1" />
  <path
     d="m 256,512 a 256,256 0 1 0 0,-512 256,256 0 1 0 0,512 z"
     id="path1"
     style="fill:#f55762;fill-opacity:1;stroke:none;stroke-opacity:1" />
  <!--! Font Awesome Free 6.4.0 by @fontawesome - https://fontawesome.com License - https://fontawesome.com/license/free (Icons: CC BY 4.0, Fonts: SIL OFL 1.1, Code: MIT License) Copyright 2023 Fonticons, Inc. -->
  <path
     d="m 175.1,175.1 c 9.4,-9.4 24.6,-9.4 33.9,0 l 47,47 47,-47 c 9.4,-9.4 24.6,-9.4 33.9,0 9.3,9.4 9.4,24.6 0,33.9 l -47,47 47,47 c 9.4,9.4 9.4,24.6 0,33.9 -9.4,9.3 -24.6,9.4 -33.9,0 l -47,-47 -47,47 c -9.4,9.4 -24.6,9.4 -33.9,0 -9.3,-9.4 -9.4,-24.6 0,-33.9 l 47,-47 -47,-47 c -9.4,-9.4 -9.4,-24.6 0,-33.9 z"
     id="path2" />
</svg>
