<?xml version="1.0" encoding="UTF-8" standalone="no"?>
<svg
   xmlns:dc="http://purl.org/dc/elements/1.1/"
   xmlns:cc="http://creativecommons.org/ns#"
   xmlns:rdf="http://www.w3.org/1999/02/22-rdf-syntax-ns#"
   xmlns:svg="http://www.w3.org/2000/svg"
   xmlns="http://www.w3.org/2000/svg"
   xmlns:sodipodi="http://sodipodi.sourceforge.net/DTD/sodipodi-0.dtd"
   xmlns:inkscape="http://www.inkscape.org/namespaces/inkscape"
   width="167.98026"
   height="25.447001"
   viewBox="0 0 167.98026 25.447001"
   fill="none"
   version="1.1"
   id="svg40"
   sodipodi:docname="logo.svg"
   inkscape:version="1.0.2-2 (e86c870879, 2021-01-15)">
  <metadata
     id="metadata46">
    <rdf:RDF>
      <cc:Work
         rdf:about="">
        <dc:format>image/svg+xml</dc:format>
        <dc:type
           rdf:resource="http://purl.org/dc/dcmitype/StillImage" />
        <dc:title></dc:title>
      </cc:Work>
    </rdf:RDF>
  </metadata>
  <defs
     id="defs44" />
  <sodipodi:namedview
     pagecolor="#ffffff"
     bordercolor="#666666"
     borderopacity="1"
     objecttolerance="10"
     gridtolerance="10"
     guidetolerance="10"
     inkscape:pageopacity="0"
     inkscape:pageshadow="2"
     inkscape:window-width="1920"
     inkscape:window-height="1017"
     id="namedview42"
     showgrid="false"
     fit-margin-top="0"
     fit-margin-left="0"
     fit-margin-right="0"
     fit-margin-bottom="0"
     inkscape:zoom="2.788021"
     inkscape:cx="11.145708"
     inkscape:cy="-31.897653"
     inkscape:window-x="-8"
     inkscape:window-y="-8"
     inkscape:window-maximized="1"
     inkscape:current-layer="svg40" />
  <path
     d="M 61.45825,20.598501 55.74625,3.7985 h -4.896 l -5.712,16.800001 h 4.2 l 0.84,-2.64 h 6.24 l 0.84,2.64 z m -8.16,-12.4080007 1.968,6.1680007 h -3.936 z"
     fill="#000000"
     id="path12" />
  <path
     d="M 66.37025,20.598501 V 3.0785 h -3.6 v 17.520001 z"
     fill="#000000"
     id="path14" />
  <path
     d="m 76.03725,8.5985003 h -2.472 V 5.2385 l -3.6,1.08 v 2.2800003 h -1.92 v 3.4560007 h 1.92 v 4.248 c 0,1.752 0.432,2.952 1.32,3.648 0.888,0.672 2.472,0.888 4.752,0.648 v -3.264 c -1.752,0.096 -2.472,-0.072 -2.472,-1.032 v -4.248 h 2.472 z"
     fill="#000000"
     id="path16" />
  <path
     d="m 89.57725,16.038501 c 0.096,-0.456 0.144,-0.936 0.144,-1.44 0,-1.8 -0.576,-3.312 -1.752,-4.512 -1.152,-1.2240007 -2.592,-1.8240007 -4.344,-1.8240007 -1.872,0 -3.408,0.6 -4.608,1.8240007 -1.176,1.2 -1.776,2.712 -1.776,4.512 0,1.824 0.6,3.336 1.8,4.536 1.224,1.2 2.832,1.8 4.848,1.8 2.304,0 4.056,-0.816 5.232,-2.472 l -2.88,-1.656 c -0.552,0.6 -1.32,0.912 -2.304,0.912 -1.512,0 -2.472,-0.552 -2.88,-1.68 z m -8.592,-2.688 c 0.36,-1.272 1.224,-1.896 2.616,-1.896 1.344,0 2.184,0.624 2.544,1.896 z"
     fill="#000000"
     id="path18" />
  <path
     d="m 95.36325,8.5985003 h -3.6 V 20.598501 h 3.6 v -5.424 c 0,-1.08 0.384,-1.848 1.128,-2.28 0.768,-0.456 1.584002,-0.6 2.472002,-0.456 V 8.3585003 c -1.632002,0 -3.144002,0.84 -3.600002,2.3760007 z"
     fill="#000000"
     id="path20" />
  <path
     d="m 110.12525,12.918501 -6.48,-9.120001 h -2.88 v 16.800001 h 3.84 v -9.12 l 6.48,9.12 h 2.88 V 3.7985 h -3.84 z"
     fill="#000000"
     id="path22" />
  <path
     d="m 120.68425,13.926501 h 6 v -3.648 h -6 V 7.4945003 h 6.6 V 3.7985 h -10.44 v 16.800001 h 10.56 v -3.696 h -6.72 z"
     fill="#000000"
     id="path24" />
  <path
     d="m 128.37025,3.7985 v 3.6960003 h 4.32 V 20.598501 h 3.84 V 7.4945003 h 4.32 V 3.7985 Z"
     fill="#000000"
     id="path26" />
  <path
     d="m 148.41125,15.174501 c 0,1.752 0.6,3.168 1.824,4.2 1.224,1.032 2.76,1.56 4.656,1.56 1.896,0 3.432,-0.528 4.656,-1.56 1.224,-1.032 1.824,-2.448 1.824,-4.2 V 3.7985 h -3.84 v 11.040001 c 0,1.56 -0.888,2.352 -2.64,2.352 -1.752,0 -2.64,-0.792 -2.64,-2.352 V 3.7985 h -3.84 z"
     fill="#000000"
     id="path28" />
  <path
     d="m 164.14025,20.598501 h 3.84 V 3.7985 h -3.84 z"
     fill="#000000"
     id="path30" />
  <path
     d="m 12.43125,24.917501 -11.331,-5.461 c -1.467,-0.707 -1.467,-1.853 0,-2.559 l 11.332,-5.461 c 1.466,-0.707 3.843,-0.707 5.309,0 l 11.332,5.461 c 1.467,0.706 1.467,1.852 0,2.559 l -11.332,5.461 c -1.466,0.706 -3.844,0.706 -5.31,0 z"
     fill="#bfc4c8"
     id="path32" />
  <path
     d="m 12.43125,22.244501 -11.331,-5.461 c -1.467,-0.707 -1.467,-1.852 0,-2.559 l 11.332,-5.4610007 c 1.466,-0.707 3.843,-0.707 5.309,0 l 11.332,5.4610007 c 1.467,0.707 1.467,1.852 0,2.559 l -11.332,5.461 c -1.466,0.706 -3.844,0.706 -5.31,0 z"
     fill="#e0e3e5"
     id="path34" />
  <path
     d="m 12.43125,16.685501 -11.331,-5.461 c -1.467,-0.707 -1.467,-1.8530007 0,-2.5590007 L 12.43125,3.2045 c 1.466,-0.707 3.844,-0.707 5.31,0 l 11.332,5.4610003 c 1.466,0.706 1.466,1.8520007 0,2.5590007 l -11.332,5.461 c -1.466,0.706 -3.844,0.706 -5.31,0 z"
     fill="#129bc6"
     id="path36" />
  <path
     d="M 12.43225,14.010501 1.10025,8.5495003 c -1.466,-0.706 -1.466,-1.8520003 0,-2.5590003 l 11.332,-5.461 c 1.466,-0.706 3.843,-0.706 5.31,0 l 11.332,5.461 c 1.466,0.707 1.466,1.8530003 0,2.5590003 l -11.332,5.4610007 c -1.467,0.707 -3.844,0.707 -5.31,0 z"
     fill="#25b5e2"
     id="path38" />
</svg>
