<?xml version="1.0" encoding="UTF-8" standalone="no"?>
<svg
   width="200"
   height="200"
   viewBox="0 0 200 200"
   fill="none"
   version="1.1"
   id="svg40"
   sodipodi:docname="splash.svg"
   inkscape:version="1.4.2 (ebf0e94, 2025-05-08)"
   xmlns:inkscape="http://www.inkscape.org/namespaces/inkscape"
   xmlns:sodipodi="http://sodipodi.sourceforge.net/DTD/sodipodi-0.dtd"
   xmlns="http://www.w3.org/2000/svg"
   xmlns:svg="http://www.w3.org/2000/svg"
   xmlns:rdf="http://www.w3.org/1999/02/22-rdf-syntax-ns#"
   xmlns:cc="http://creativecommons.org/ns#"
   xmlns:dc="http://purl.org/dc/elements/1.1/">
  <metadata
     id="metadata46">
    <rdf:RDF>
      <cc:Work
         rdf:about="">
        <dc:format>image/svg+xml</dc:format>
        <dc:type
           rdf:resource="http://purl.org/dc/dcmitype/StillImage" />
      </cc:Work>
    </rdf:RDF>
  </metadata>
  <defs
     id="defs44" />
  <sodipodi:namedview
     pagecolor="#ffffff"
     bordercolor="#666666"
     borderopacity="1"
     objecttolerance="10"
     gridtolerance="10"
     guidetolerance="10"
     inkscape:pageopacity="0"
     inkscape:pageshadow="2"
     inkscape:window-width="1920"
     inkscape:window-height="1010"
     id="namedview42"
     showgrid="false"
     fit-margin-top="0"
     fit-margin-left="0"
     fit-margin-right="0"
     fit-margin-bottom="0"
     inkscape:zoom="2.788021"
     inkscape:cx="11.118998"
     inkscape:cy="82.854469"
     inkscape:window-x="-6"
     inkscape:window-y="-6"
     inkscape:window-maximized="1"
     inkscape:current-layer="svg40"
     inkscape:showpageshadow="2"
     inkscape:pagecheckerboard="0"
     inkscape:deskcolor="#d1d1d1" />
  <rect
     style="opacity:1;fill:#f9f9f9;fill-opacity:1;fill-rule:nonzero;stroke:#f9f9f9;stroke-width:17.8173;stroke-linecap:round;stroke-linejoin:round;stroke-dasharray:none;stroke-opacity:1"
     id="rect1"
     width="166.21515"
     height="29.559057"
     x="17.860109"
     y="77.041878" />
  <path
     d="m 76.164021,100.22487 -5.712,-16.799997 h -4.896 l -5.712,16.799997 h 4.2 l 0.84,-2.639996 h 6.24 l 0.84,2.639996 z m -8.16,-12.407997 1.968,6.168001 h -3.936 z"
     fill="#000000"
     id="path12" />
  <path
     d="M 81.076021,100.22487 V 82.704873 h -3.6 v 17.519997 z"
     fill="#000000"
     id="path14" />
  <path
     d="m 90.743021,88.224873 h -2.472 v -3.36 l -3.6,1.08 v 2.28 h -1.92 v 3.456001 h 1.92 v 4.248 c 0,1.752 0.432,2.952 1.32,3.648 0.888,0.671996 2.472,0.887996 4.752,0.647996 v -3.263996 c -1.752,0.096 -2.472,-0.072 -2.472,-1.032 v -4.248 h 2.472 z"
     fill="#000000"
     id="path16" />
  <path
     d="m 104.28302,95.664874 c 0.096,-0.456 0.144,-0.936 0.144,-1.44 0,-1.8 -0.576,-3.312 -1.752,-4.512 -1.152,-1.224001 -2.592,-1.824001 -4.343999,-1.824001 -1.872,0 -3.408,0.6 -4.608,1.824001 -1.176,1.2 -1.776,2.712 -1.776,4.512 0,1.824 0.6,3.336 1.8,4.536 1.224,1.2 2.832,1.799996 4.848,1.799996 2.303999,0 4.055999,-0.815996 5.231999,-2.471996 l -2.88,-1.656 c -0.552,0.6 -1.319999,0.912 -2.303999,0.912 -1.512,0 -2.472,-0.552 -2.88,-1.68 z m -8.591999,-2.688 c 0.36,-1.272 1.224,-1.896 2.616,-1.896 1.344,0 2.183999,0.624 2.543999,1.896 z"
     fill="#000000"
     id="path18" />
  <path
     d="m 110.06902,88.224873 h -3.6 v 11.999997 h 3.6 v -5.423996 c 0,-1.08 0.384,-1.848 1.128,-2.28 0.768,-0.456 1.584,-0.6 2.472,-0.456 v -4.080001 c -1.632,0 -3.144,0.84 -3.6,2.376001 z"
     fill="#000000"
     id="path20" />
  <path
     d="m 124.83102,92.544874 -6.48,-9.120001 h -2.88 v 16.799997 h 3.84 v -9.119996 l 6.48,9.119996 h 2.88 V 83.424873 h -3.84 z"
     fill="#000000"
     id="path22" />
  <path
     d="m 135.39002,93.552874 h 6 v -3.648 h -6 v -2.784001 h 6.6 v -3.696 h -10.44 v 16.799997 h 10.56 v -3.695996 h -6.72 z"
     fill="#000000"
     id="path24" />
  <path
     d="m 143.07602,83.424873 v 3.696 h 4.32 v 13.103997 h 3.84 V 87.120873 h 4.32 v -3.696 z"
     fill="#000000"
     id="path26" />
  <path
     d="m 163.11702,94.800874 c 0,1.752 0.6,3.168 1.824,4.2 1.224,1.031996 2.76,1.559996 4.656,1.559996 1.896,0 3.432,-0.528 4.656,-1.559996 1.224,-1.032 1.824,-2.448 1.824,-4.2 V 83.424873 h -3.84 v 11.040001 c 0,1.56 -0.888,2.352 -2.64,2.352 -1.752,0 -2.64,-0.792 -2.64,-2.352 V 83.424873 h -3.84 z"
     fill="#000000"
     id="path28" />
  <path
     d="m 178.84602,100.22487 h 3.84 V 83.424873 h -3.84 z"
     fill="#000000"
     id="path30" />
  <path
     d="M 27.137021,104.54387 15.806022,99.082874 c -1.467,-0.707 -1.467,-1.853 0,-2.559 l 11.331999,-5.461 c 1.466,-0.707 3.843,-0.707 5.309,0 l 11.332,5.461 c 1.467,0.706 1.467,1.852 0,2.559 l -11.332,5.460996 c -1.466,0.706 -3.844,0.706 -5.31,0 z"
     fill="#bfc4c8"
     id="path32" />
  <path
     d="M 27.137021,101.87087 15.806022,96.409874 c -1.467,-0.707 -1.467,-1.852 0,-2.559 l 11.331999,-5.461001 c 1.466,-0.707 3.843,-0.707 5.309,0 l 11.332,5.461001 c 1.467,0.707 1.467,1.852 0,2.559 l -11.332,5.460996 c -1.466,0.706 -3.844,0.706 -5.31,0 z"
     fill="#e0e3e5"
     id="path34" />
  <path
     d="m 27.137021,96.311874 -11.330999,-5.461 c -1.467,-0.707 -1.467,-1.853001 0,-2.559001 l 11.330999,-5.461 c 1.466,-0.707 3.844,-0.707 5.31,0 l 11.332,5.461 c 1.466,0.706 1.466,1.852001 0,2.559001 l -11.332,5.461 c -1.466,0.706 -3.844,0.706 -5.31,0 z"
     fill="#129bc6"
     id="path36" />
  <path
     d="M 27.138021,93.636874 15.806022,88.175873 c -1.466,-0.706 -1.466,-1.852 0,-2.559 l 11.331999,-5.461 c 1.466,-0.706 3.843,-0.706 5.31,0 l 11.332,5.461 c 1.466,0.707 1.466,1.853 0,2.559 l -11.332,5.461001 c -1.467,0.707 -3.844,0.707 -5.31,0 z"
     fill="#25b5e2"
     id="path38" />
  <path
     style="opacity:1;fill:#276f6f;fill-opacity:0;stroke:none;stroke-width:1.20922;stroke-linecap:round;stroke-linejoin:round;stroke-dasharray:none;stroke-opacity:1"
     d="M 13.450401,92.897435 V 72.990842 H 99.174289 184.89817 V 92.897435 112.80403 H 99.174289 13.450401 Z m 24.928076,8.936515 c 5.243825,-2.597205 6.477755,-3.349524 6.571018,-4.006305 0.06822,-0.480383 -0.110039,-0.894916 -0.439129,-1.0212 -0.496321,-0.190456 -0.497074,-0.269453 -0.0072,-0.759286 0.867817,-0.867817 0.458546,-1.646582 -1.372552,-2.611708 -0.935694,-0.493181 -1.701262,-0.977396 -1.701262,-1.076032 0,-0.09864 0.766206,-0.58285 1.702679,-1.076032 1.798634,-0.947227 2.473894,-2.306131 1.358617,-2.734103 -0.522719,-0.200586 -0.521488,-0.258343 0.01385,-0.64979 1.369361,-1.001302 0.454333,-1.75487 -6.125977,-5.045025 -8.740291,-4.370145 -8.448651,-4.370244 -17.216513,0.0058 -3.933568,1.963247 -6.498229,3.450536 -6.563777,3.806441 -0.05917,0.321283 0.138436,0.830172 0.439129,1.130864 0.489834,0.489834 0.48908,0.568831 -0.0072,0.759287 -1.095528,0.420394 -0.404294,1.787702 1.378376,2.726521 0.936473,0.493182 1.703146,0.985585 1.703717,1.094229 5.71e-4,0.108645 -0.73052,0.552955 -1.624648,0.987356 -1.884907,0.915758 -2.288453,1.624984 -1.451087,2.550263 0.530311,0.585988 0.535171,0.683406 0.0435,0.872078 -0.674554,0.25885 -0.726422,1.438273 -0.0866,1.969275 0.256793,0.21312 3.363836,1.775157 6.904539,3.471187 8.240363,3.94723 7.689319,3.9604 16.480607,-0.39383 z m 51.978881,-1.44267 c 0.408985,-0.15694 0.567352,-0.701252 0.567352,-1.949995 0,-1.692202 -0.02698,-1.734888 -1.165702,-1.844682 C 88.593364,96.484214 88.593303,96.4841 88.486522,94.242475 L 88.37974,92.000742 h 1.272483 1.272487 v -1.972726 -1.972725 h -1.255371 c -1.253757,0 -1.255371,-0.0021 -1.255371,-1.658883 0,-1.61859 -0.02396,-1.654072 -0.986362,-1.460807 -2.322329,0.466356 -2.959089,0.904215 -2.959089,2.03478 0,0.918119 -0.137854,1.08491 -0.896693,1.08491 -0.847784,0 -0.896693,0.107603 -0.896693,1.972725 0,1.83806 0.05822,1.972726 0.85282,1.972726 0.823232,0 0.858164,0.111752 1.006818,3.220972 0.131523,2.750945 0.27522,3.350009 0.984709,4.105225 0.973748,1.036511 3.475899,1.586991 4.83788,1.064341 z M 102.22,99.78637 c 1.95429,-1.106818 2.00702,-1.833288 0.19996,-2.755181 -1.11006,-0.566311 -1.62843,-0.657286 -2.15116,-0.377532 -1.018037,0.544838 -3.093402,0.447295 -3.605253,-0.169448 -0.39259,-0.473042 0.06213,-0.538016 3.765303,-0.538016 h 4.21182 l -0.15324,-2.118537 c -0.35609,-4.922806 -4.898772,-7.531975 -9.269367,-5.324018 -1.874681,0.947059 -3.026361,2.51759 -3.355487,4.575829 -0.454717,2.843632 1.117972,5.975353 3.527818,7.025013 1.792404,0.78073 5.166946,0.62354 6.829606,-0.31811 z m 71.42915,-0.102279 c 2.36715,-1.767338 2.45101,-2.077019 2.57284,-9.501829 l 0.11141,-6.789777 h -2.17381 -2.1738 v 6.077177 c 0,5.873379 -0.0267,6.095901 -0.79717,6.635531 -1.11301,0.779591 -2.55389,0.695762 -3.3617,-0.195581 -0.60227,-0.664549 -0.69677,-1.451258 -0.79708,-6.635531 l -0.11381,-5.881596 h -1.94859 -1.94859 v 6.551458 c 0,7.613539 0.24725,8.453471 2.90721,9.876259 1.32607,0.709308 1.98612,0.823628 4.15848,0.720248 1.90354,-0.0906 2.84041,-0.31567 3.56461,-0.856359 z M 64.613133,99.08462 64.947448,97.918918 h 3.021911 3.021911 l 0.334316,1.165702 c 0.332052,1.1578 0.349771,1.1657 2.613836,1.1657 1.253735,0 2.281234,-0.12105 2.283336,-0.269007 0.0021,-0.147954 -1.248785,-3.945036 -2.779749,-8.437958 l -2.78357,-8.16895 -2.69008,0.09871 -2.69008,0.09871 -2.756482,8.070241 c -1.516068,4.438632 -2.766956,8.191294 -2.77975,8.339248 -0.0128,0.147956 1.002514,0.269006 2.256249,0.269006 2.264065,0 2.281784,-0.008 2.613837,-1.1657 z M 81.240421,91.462726 V 82.675131 H 79.267696 77.29497 v 8.787595 8.787594 h 1.972726 1.972725 z m 29.052859,5.559499 c 0,-3.662191 0.53879,-4.662806 2.51074,-4.662806 h 1.07604 v -2.331403 c 0,-2.617986 -0.14863,-2.726889 -2.25557,-1.652713 -1.0516,0.536141 -1.33121,0.573808 -1.33121,0.179339 0,-0.366156 -0.52619,-0.499351 -1.97272,-0.499351 h -1.97272 v 6.097515 6.097514 h 1.97272 1.97272 z m 9.32561,-0.952531 v -4.180628 l 2.93706,4.180628 2.93706,4.180626 h 1.72575 1.72575 v -8.428917 -8.428918 h -2.14068 -2.14069 l -0.10105,4.160879 -0.10105,4.160878 -2.86942,-4.144511 -2.86942,-4.14451 -1.70372,-0.01637 -1.70371,-0.01637 v 8.428918 8.428921 h 2.15206 2.15206 z m 22.59668,2.207902 V 96.30487 h -3.40744 -3.40743 v -1.255371 -1.25537 h 3.04876 3.04875 v -1.972726 -1.972725 h -3.04875 -3.04876 v -1.255371 -1.255371 h 3.40743 3.40744 v -1.972725 -1.972726 h -5.38016 -5.38016 v 8.428918 8.428917 h 5.38016 5.38016 z m 9.32561,-4.483467 v -6.456193 h 2.15206 2.15207 v -1.972725 -1.972726 h -6.4562 -6.45619 v 1.972726 1.972725 h 2.15207 2.15206 v 6.456193 6.456191 h 2.15206 2.15207 z m 31.20493,-1.972726 v -8.428918 h -1.97273 -1.97272 v 8.428918 8.428917 h 1.97272 1.97273 z"
     id="path2" />
</svg>
