<?xml version="1.0" encoding="UTF-8" standalone="no"?>
<svg
   width="32"
   height="32"
   viewBox="0 0 32 32"
   fill="none"
   version="1.1"
   id="svg1"
   sodipodi:docname="Compile.svg"
   inkscape:version="1.3.2 (091e20e, 2023-11-25, custom)"
   xmlns:inkscape="http://www.inkscape.org/namespaces/inkscape"
   xmlns:sodipodi="http://sodipodi.sourceforge.net/DTD/sodipodi-0.dtd"
   xmlns="http://www.w3.org/2000/svg"
   xmlns:svg="http://www.w3.org/2000/svg">
  <defs
     id="defs1" />
  <sodipodi:namedview
     id="namedview1"
     pagecolor="#ffffff"
     bordercolor="#000000"
     borderopacity="0.25"
     inkscape:showpageshadow="2"
     inkscape:pageopacity="0.0"
     inkscape:pagecheckerboard="0"
     inkscape:deskcolor="#d1d1d1"
     showgrid="true"
     inkscape:zoom="25.437501"
     inkscape:cx="17.513513"
     inkscape:cy="16.668304"
     inkscape:window-width="1920"
     inkscape:window-height="1010"
     inkscape:window-x="-6"
     inkscape:window-y="-6"
     inkscape:window-maximized="1"
     inkscape:current-layer="svg1">
    <inkscape:grid
       id="grid3"
       units="px"
       originx="0"
       originy="0"
       spacingx="1"
       spacingy="1"
       empcolor="#0099e5"
       empopacity="0.30196078"
       color="#0099e5"
       opacity="0.14901961"
       empspacing="5"
       dotted="false"
       gridanglex="30"
       gridanglez="30"
       visible="true" />
  </sodipodi:namedview>
  <g
     id="g3"
     transform="matrix(1.057735,0,0,1.0465359,-0.92375995,-2.3314134)">
    <path
       d="m 18.21294,25.648928 c 0,-0.594675 -0.495367,-1.076726 -1.10647,-1.076726 h -2.21294 c -0.611102,0 -1.10647,0.482051 -1.10647,1.076726 0,0.594674 0.495368,1.076725 1.10647,1.076725 h 2.21294 c 0.611103,0 1.10647,-0.482051 1.10647,-1.076725 z"
       style="fill:#212121;stroke-width:1.0915"
       id="path16" />
    <path
       d="m 18.21294,25.648928 c 0,-0.594675 -0.495367,-1.076726 -1.10647,-1.076726 h -2.21294 c -0.611102,0 -1.10647,0.482051 -1.10647,1.076726 0,0.594674 0.495368,1.076725 1.10647,1.076725 h 2.21294 c 0.611103,0 1.10647,-0.482051 1.10647,-1.076725 z"
       style="fill:#212121;stroke-width:1.0915"
       id="path12" />
    <path
       d="m 18.21294,25.648928 c 0,-0.594675 -0.495378,-1.076726 -1.10647,-1.076726 h -2.21294 c -0.611102,0 -1.10647,0.482051 -1.10647,1.076726 0,0.594674 0.495368,1.076725 1.10647,1.076725 h 2.21294 c 0.611092,0 1.10647,-0.482051 1.10647,-1.076725 z"
       style="fill:#212121;stroke-width:1.0915"
       id="path8" />
    <g
       id="g2"
       transform="matrix(1.1064701,0,0,1.0767255,-1.3915632,1.846549)">
      <path
         d="m 11.71806,22.106265 c 0,0.552299 -0.447701,1 -1,1 H 8.7180596 c -0.552299,0 -1,-0.447701 -1,-1 0,-0.552299 0.447701,-1 1,-1 H 10.71806 c 0.552299,0 1,0.447701 1,1 z"
         style="fill:#212121"
         id="path15" />
      <path
         d="m 17.71806,22.106265 c 0,0.552299 -0.447701,1 -1,1 h -2 c -0.552299,0 -1,-0.447701 -1,-1 0,-0.552299 0.447701,-1 1,-1 h 2 c 0.552299,0 1,0.447701 1,1 z"
         style="fill:#212121"
         id="path11" />
      <path
         d="m 23.71806,22.106265 c 0,0.552299 -0.447711,1 -1,1 h -2 c -0.552299,0 -1,-0.447701 -1,-1 0,-0.552299 0.447701,-1 1,-1 h 2 c 0.552289,0 1,0.447701 1,1 z"
         style="fill:#212121"
         id="path7" />
    </g>
    <path
       d="m 29.277641,18.650212 h -2.21294 v 7.537078 c 0,1.486634 -1.238462,2.691814 -2.766175,2.691814 H 7.701474 c -1.5277018,0 -2.7661749,-1.20518 -2.7661749,-2.691814 V 18.650212 H 2.7223589 v 7.537078 c 0,2.675984 2.2292075,4.845265 4.9791151,4.845265 h 16.597052 c 2.749886,0 4.979115,-2.169281 4.979115,-4.845265 z"
       style="fill:#212121;stroke-width:1.0915"
       id="path4" />
    <path
       d="m 15.999991,19.074157 c 0.283174,0 0.566271,-0.105207 0.782309,-0.315448 l 6.638822,-6.460352 c 0.432098,-0.420461 0.432098,-1.102097 0,-1.522557 -0.432109,-0.420461 -1.132542,-0.420461 -1.564618,0 l -4.750043,4.622348 V 5.0767254 c 0,-0.594674 -0.495367,-1.0767251 -1.10647,-1.0767251 -0.611102,0 -1.10647,0.4820511 -1.10647,1.0767251 V 15.398148 L 10.143479,10.7758 c -0.4320743,-0.420461 -1.1325403,-0.420461 -1.5646173,0 -0.432076,0.42046 -0.432076,1.102096 0,1.522557 l 6.6388213,6.460352 c 0.216038,0.210242 0.499136,0.315448 0.782308,0.315448 z"
       style="fill:#212121;stroke-width:1.0915"
       id="path4-8" />
    <g
       id="g1"
       transform="matrix(1.1064701,0,0,1.0767255,-10.555282,2.8043285)">
      <path
         d="m 20,18 c 0,-0.552299 -0.447701,-1 -1,-1 h -2 c -0.552299,0 -1,0.447701 -1,1 0,0.552299 0.447701,1 1,1 h 2 c 0.552299,0 1,-0.447701 1,-1 z"
         style="fill:#212121"
         id="path16-0" />
      <path
         d="m 20,18 c 0,0.552299 -0.447701,1 -1,1 h -2 c -0.552299,0 -1,-0.447701 -1,-1 0,-0.552299 0.447701,-1 1,-1 h 2 c 0.552299,0 1,0.447701 1,1 z"
         style="fill:#212121"
         id="path15-2" />
      <path
         d="m 26,18 c 0,-0.552299 -0.447701,-1 -1,-1 h -2 c -0.552299,0 -1,0.447701 -1,1 0,0.552299 0.447701,1 1,1 h 2 c 0.552299,0 1,-0.447701 1,-1 z"
         style="fill:#212121"
         id="path12-9" />
      <path
         d="m 26,18 c 0,0.552299 -0.447701,1 -1,1 h -2 c -0.552299,0 -1,-0.447701 -1,-1 0,-0.552299 0.447701,-1 1,-1 h 2 c 0.552299,0 1,0.447701 1,1 z"
         style="fill:#212121"
         id="path11-1" />
      <path
         d="m 32,18 c 0,-0.552299 -0.447711,-1 -1,-1 h -2 c -0.552299,0 -1,0.447701 -1,1 0,0.552299 0.447701,1 1,1 h 2 c 0.552289,0 1,-0.447701 1,-1 z"
         style="fill:#212121"
         id="path8-3" />
      <path
         d="m 32,18 c 0,0.552299 -0.447711,1 -1,1 h -2 c -0.552299,0 -1,-0.447701 -1,-1 0,-0.552299 0.447701,-1 1,-1 h 2 c 0.552289,0 1,0.447701 1,1 z"
         style="fill:#212121"
         id="path7-4" />
    </g>
  </g>
</svg>
