<?xml version="1.0" encoding="UTF-8" standalone="no"?>
<svg
   width="32"
   height="32"
   viewBox="0 0 32 32"
   fill="none"
   version="1.1"
   id="svg1"
   sodipodi:docname="FieldInternal.svg"
   inkscape:version="1.3.2 (091e20e, 2023-11-25, custom)"
   xmlns:inkscape="http://www.inkscape.org/namespaces/inkscape"
   xmlns:sodipodi="http://sodipodi.sourceforge.net/DTD/sodipodi-0.dtd"
   xmlns="http://www.w3.org/2000/svg"
   xmlns:svg="http://www.w3.org/2000/svg">
  <defs
     id="defs1" />
  <sodipodi:namedview
     id="namedview1"
     pagecolor="#ffffff"
     bordercolor="#000000"
     borderopacity="0.25"
     inkscape:showpageshadow="2"
     inkscape:pageopacity="0.0"
     inkscape:pagecheckerboard="0"
     inkscape:deskcolor="#d1d1d1"
     inkscape:zoom="25.4375"
     inkscape:cx="15.941032"
     inkscape:cy="16"
     inkscape:window-width="1920"
     inkscape:window-height="1010"
     inkscape:window-x="-6"
     inkscape:window-y="-6"
     inkscape:window-maximized="1"
     inkscape:current-layer="svg1" />
  <path
     d="m 19.989934,18.144977 c -0.970129,-0.0026 -1.938423,0.364826 -2.677009,1.101128 -1.477172,1.472693 -1.471159,3.865021 0.01244,5.344076 l 5.493213,5.473329 c 0.227802,0.227038 0.597424,0.227038 0.825226,0 l 5.463387,-5.441014 c 1.473709,-1.477403 1.468979,-3.864767 -0.01492,-5.344077 -1.486309,-1.481679 -3.889113,-1.48768 -5.368933,-0.01248 l -0.519498,0.519539 -0.529436,-0.526951 c -0.741756,-0.739519 -1.714339,-1.110955 -2.684468,-1.113553 z"
     style="fill:#000000;stroke-width:1.27264"
     id="path5" />
  <path
     id="path4"
     style="fill:#000000"
     d="m 7.9,3.97 c -2.485275,0 -4.5,2.014725 -4.5,4.5 v 5.5 h 10 v -10 z m 7.5,0 v 10 h 9.5 v -5.5 c 0,-2.485275 -2.014704,-4.5 -4.5,-4.5 z m -12,12 v 5 c 0,2.485296 2.014725,4.5 4.5,4.5 h 5.5 v -9.5 z" />
</svg>
