<?xml version="1.0" encoding="UTF-8" standalone="no"?>
<svg
   width="32"
   height="32"
   viewBox="0 0 32 32"
   fill="none"
   version="1.1"
   id="svg1"
   sodipodi:docname="FieldProtected.svg"
   inkscape:version="1.3.2 (091e20e, 2023-11-25, custom)"
   xmlns:inkscape="http://www.inkscape.org/namespaces/inkscape"
   xmlns:sodipodi="http://sodipodi.sourceforge.net/DTD/sodipodi-0.dtd"
   xmlns="http://www.w3.org/2000/svg"
   xmlns:svg="http://www.w3.org/2000/svg">
  <defs
     id="defs1" />
  <sodipodi:namedview
     id="namedview1"
     pagecolor="#ffffff"
     bordercolor="#000000"
     borderopacity="0.25"
     inkscape:showpageshadow="2"
     inkscape:pageopacity="0.0"
     inkscape:pagecheckerboard="0"
     inkscape:deskcolor="#d1d1d1"
     inkscape:zoom="25.4375"
     inkscape:cx="16.019656"
     inkscape:cy="16"
     inkscape:window-width="1920"
     inkscape:window-height="1010"
     inkscape:window-x="-6"
     inkscape:window-y="-6"
     inkscape:window-maximized="1"
     inkscape:current-layer="svg1" />
  <path
     d="m 22.290074,16.191647 c 0.329404,-0.671581 1.286715,-0.671581 1.616119,0 l 1.919121,3.912902 4.302828,0.629167 c 0.736508,0.107641 1.031412,1.011851 0.500046,1.533077 l -3.117335,3.057574 0.734648,4.310328 c 0.125461,0.736028 -0.648127,1.295894 -1.308075,0.94681 l -3.839322,-2.031082 -3.839317,2.031082 c -0.659942,0.349084 -1.433518,-0.210782 -1.308069,-0.94681 l 0.73469,-4.310328 -3.117341,-3.057574 c -0.53136,-0.521226 -0.236456,-1.425436 0.50001,-1.533077 l 4.302816,-0.629167 z"
     fill="#212121"
     id="path1"
     style="fill:#000000;stroke-width:0.600007" />
  <path
     id="path4"
     style="fill:#000000"
     d="m 7.9,3.97 c -2.485275,0 -4.5,2.014725 -4.5,4.5 v 5.5 h 10 v -10 z m 7.5,0 v 10 h 9.5 v -5.5 c 0,-2.485275 -2.014704,-4.5 -4.5,-4.5 z m -12,12 v 5 c 0,2.485296 2.014725,4.5 4.5,4.5 h 5.5 v -9.5 z" />
</svg>
