<?xml version="1.0" encoding="UTF-8" standalone="no"?>
<svg
   width="32"
   height="32"
   viewBox="0 0 32 32"
   fill="none"
   version="1.1"
   id="svg1"
   sodipodi:docname="FieldPrivate.svg"
   inkscape:version="1.3.2 (091e20e, 2023-11-25, custom)"
   xmlns:inkscape="http://www.inkscape.org/namespaces/inkscape"
   xmlns:sodipodi="http://sodipodi.sourceforge.net/DTD/sodipodi-0.dtd"
   xmlns="http://www.w3.org/2000/svg"
   xmlns:svg="http://www.w3.org/2000/svg">
  <defs
     id="defs1" />
  <sodipodi:namedview
     id="namedview1"
     pagecolor="#ffffff"
     bordercolor="#000000"
     borderopacity="0.25"
     inkscape:showpageshadow="2"
     inkscape:pageopacity="0.0"
     inkscape:pagecheckerboard="0"
     inkscape:deskcolor="#d1d1d1"
     inkscape:zoom="25.4375"
     inkscape:cx="16.019656"
     inkscape:cy="16"
     inkscape:window-width="1920"
     inkscape:window-height="1010"
     inkscape:window-x="-6"
     inkscape:window-y="-6"
     inkscape:window-maximized="1"
     inkscape:current-layer="svg1" />
  <path
     d="m 23.785012,15.857494 c -1.932998,0 -3.5,1.567002 -3.5,3.5 v 0.5 h -0.5 c -1.380699,0 -2.5,1.119301 -2.5,2.5 v 6 c 0,1.380698 1.119301,2.5 2.5,2.5 h 8 c 1.380699,0 2.5,-1.119302 2.5,-2.5 v -6 c 0,-1.380699 -1.119301,-2.5 -2.5,-2.5 h -0.5 v -0.5 c 0,-1.932998 -1.567002,-3.5 -3.5,-3.5 z m 0,2 c 0.828399,0 1.5,0.671601 1.5,1.5 v 0.5 h -3 v -0.5 c 0,-0.828399 0.671601,-1.5 1.5,-1.5 z m 0,5.5 c 1.104599,0 2,0.895401 2,2 0,1.104599 -0.895401,2 -2,2 -1.104599,0 -2,-0.895401 -2,-2 0,-1.104599 0.895401,-2 2,-2 z"
     style="fill:#000000"
     id="path8" />
  <path
     id="path4"
     style="fill:#000000"
     d="m 7.9,3.97 c -2.485275,0 -4.5,2.014725 -4.5,4.5 v 5.5 h 10 v -10 z m 7.5,0 v 10 h 9.5 v -5.5 c 0,-2.485275 -2.014704,-4.5 -4.5,-4.5 z m -12,12 v 5 c 0,2.485296 2.014725,4.5 4.5,4.5 h 5.5 v -9.5 z" />
</svg>
