<?xml version="1.0" encoding="UTF-8" standalone="no"?>
<svg
   width="32"
   height="32"
   viewBox="0 0 32 32"
   fill="none"
   version="1.1"
   id="svg1"
   sodipodi:docname="PropertyPrrivate.svg"
   inkscape:version="1.3.2 (091e20e, 2023-11-25, custom)"
   xmlns:inkscape="http://www.inkscape.org/namespaces/inkscape"
   xmlns:sodipodi="http://sodipodi.sourceforge.net/DTD/sodipodi-0.dtd"
   xmlns="http://www.w3.org/2000/svg"
   xmlns:svg="http://www.w3.org/2000/svg">
  <defs
     id="defs1" />
  <sodipodi:namedview
     id="namedview1"
     pagecolor="#ffffff"
     bordercolor="#000000"
     borderopacity="0.25"
     inkscape:showpageshadow="2"
     inkscape:pageopacity="0.0"
     inkscape:pagecheckerboard="0"
     inkscape:deskcolor="#d1d1d1"
     inkscape:zoom="25.4375"
     inkscape:cx="15.980344"
     inkscape:cy="16"
     inkscape:window-width="1920"
     inkscape:window-height="1010"
     inkscape:window-x="-6"
     inkscape:window-y="-6"
     inkscape:window-maximized="1"
     inkscape:current-layer="svg1" />
  <path
     d="M 21.341063,3.289532 C 21.286289,3.2320446 21.223766,3.1808103 21.155399,3.1370803 18.727422,1.5840645 15.485395,1.6401811 13.080141,3.5146179 10.876566,5.2318839 9.9817468,8.0034667 10.54904,10.558338 l -7.6303908,5.946434 c -1.3069055,1.018483 -1.5406734,2.903512 -0.5222204,4.210378 1.0184836,1.306906 2.9034728,1.540704 4.2103784,0.522221 l 7.6303918,-5.946435 c 2.338855,1.174264 5.245069,0.983679 7.448644,-0.733587 C 24.091097,12.682912 24.9376,9.5528877 24.024767,6.8190177 23.922,6.511158 23.674757,6.2715036 23.363963,6.1776134 23.053231,6.0838021 22.716735,6.1471503 22.460686,6.3466918 l -3.674235,2.8633649 c -0.435619,0.339482 -1.063965,0.261561 -1.403459,-0.174074 -0.339482,-0.435619 -0.261546,-1.063977 0.174073,-1.403459 L 21.2313,4.7691589 C 21.487349,4.5696174 21.63101,4.258825 21.61593,3.9345588 21.60462,3.6913591 21.505385,3.461994 21.341063,3.289532 Z"
     style="fill:#000000"
     id="path3" />
  <path
     d="m 23.785012,15.857494 c -1.932998,0 -3.5,1.567002 -3.5,3.5 v 0.5 h -0.5 c -1.380699,0 -2.5,1.119301 -2.5,2.5 v 6 c 0,1.380698 1.119301,2.5 2.5,2.5 h 8 c 1.380699,0 2.5,-1.119302 2.5,-2.5 v -6 c 0,-1.380699 -1.119301,-2.5 -2.5,-2.5 h -0.5 v -0.5 c 0,-1.932998 -1.567002,-3.5 -3.5,-3.5 z m 0,2 c 0.828399,0 1.5,0.671601 1.5,1.5 v 0.5 h -3 v -0.5 c 0,-0.828399 0.671601,-1.5 1.5,-1.5 z m 0,5.5 c 1.104599,0 2,0.895401 2,2 0,1.104599 -0.895401,2 -2,2 -1.104599,0 -2,-0.895401 -2,-2 0,-1.104599 0.895401,-2 2,-2 z"
     style="fill:#000000"
     id="path8" />
</svg>
