<?xml version="1.0" encoding="UTF-8" standalone="no"?>
<svg
   width="32"
   height="32"
   viewBox="0 0 32 32"
   fill="none"
   version="1.1"
   id="svg1"
   sodipodi:docname="PropertyProtected.svg"
   inkscape:version="1.3.2 (091e20e, 2023-11-25, custom)"
   xmlns:inkscape="http://www.inkscape.org/namespaces/inkscape"
   xmlns:sodipodi="http://sodipodi.sourceforge.net/DTD/sodipodi-0.dtd"
   xmlns="http://www.w3.org/2000/svg"
   xmlns:svg="http://www.w3.org/2000/svg">
  <defs
     id="defs1" />
  <sodipodi:namedview
     id="namedview1"
     pagecolor="#ffffff"
     bordercolor="#000000"
     borderopacity="0.25"
     inkscape:showpageshadow="2"
     inkscape:pageopacity="0.0"
     inkscape:pagecheckerboard="0"
     inkscape:deskcolor="#d1d1d1"
     inkscape:zoom="25.4375"
     inkscape:cx="15.980344"
     inkscape:cy="16"
     inkscape:window-width="1920"
     inkscape:window-height="1010"
     inkscape:window-x="-6"
     inkscape:window-y="-6"
     inkscape:window-maximized="1"
     inkscape:current-layer="svg1" />
  <path
     d="M 21.341063,3.289532 C 21.286289,3.2320446 21.223766,3.1808103 21.155399,3.1370803 18.727422,1.5840645 15.485395,1.6401811 13.080141,3.5146179 10.876566,5.2318839 9.9817468,8.0034667 10.54904,10.558338 l -7.6303908,5.946434 c -1.3069055,1.018483 -1.5406734,2.903512 -0.5222204,4.210378 1.0184836,1.306906 2.9034728,1.540704 4.2103784,0.522221 l 7.6303918,-5.946435 c 2.338855,1.174264 5.245069,0.983679 7.448644,-0.733587 C 24.091097,12.682912 24.9376,9.5528877 24.024767,6.8190177 23.922,6.511158 23.674757,6.2715036 23.363963,6.1776134 23.053231,6.0838021 22.716735,6.1471503 22.460686,6.3466918 l -3.674235,2.8633649 c -0.435619,0.339482 -1.063965,0.261561 -1.403459,-0.174074 -0.339482,-0.435619 -0.261546,-1.063977 0.174073,-1.403459 L 21.2313,4.7691589 C 21.487349,4.5696174 21.63101,4.258825 21.61593,3.9345588 21.60462,3.6913591 21.505385,3.461994 21.341063,3.289532 Z"
     style="fill:#000000"
     id="path3" />
  <path
     d="m 22.290074,16.191647 c 0.329404,-0.671581 1.286715,-0.671581 1.616119,0 l 1.919121,3.912902 4.302828,0.629167 c 0.736508,0.107641 1.031412,1.011851 0.500046,1.533077 l -3.117335,3.057574 0.734648,4.310328 c 0.125461,0.736028 -0.648127,1.295894 -1.308075,0.94681 l -3.839322,-2.031082 -3.839317,2.031082 c -0.659942,0.349084 -1.433518,-0.210782 -1.308069,-0.94681 l 0.73469,-4.310328 -3.117341,-3.057574 c -0.53136,-0.521226 -0.236456,-1.425436 0.50001,-1.533077 l 4.302816,-0.629167 z"
     fill="#212121"
     id="path1"
     style="fill:#000000;stroke-width:0.600007" />
</svg>
