<?xml version="1.0" encoding="UTF-8" standalone="no"?>
<svg
   width="32"
   height="32"
   viewBox="0 0 32 32"
   fill="none"
   version="1.1"
   id="svg1"
   sodipodi:docname="StaticMembers.svg"
   inkscape:version="1.3.2 (091e20e, 2023-11-25, custom)"
   xmlns:inkscape="http://www.inkscape.org/namespaces/inkscape"
   xmlns:sodipodi="http://sodipodi.sourceforge.net/DTD/sodipodi-0.dtd"
   xmlns="http://www.w3.org/2000/svg"
   xmlns:svg="http://www.w3.org/2000/svg">
  <defs
     id="defs1" />
  <sodipodi:namedview
     id="namedview1"
     pagecolor="#ffffff"
     bordercolor="#000000"
     borderopacity="0.25"
     inkscape:showpageshadow="2"
     inkscape:pageopacity="0.0"
     inkscape:pagecheckerboard="0"
     inkscape:deskcolor="#d1d1d1"
     inkscape:zoom="3.1796875"
     inkscape:cx="15.882064"
     inkscape:cy="16.039312"
     inkscape:window-width="1920"
     inkscape:window-height="1010"
     inkscape:window-x="-6"
     inkscape:window-y="-6"
     inkscape:window-maximized="1"
     inkscape:current-layer="svg1" />
  <path
     d="m 20.1,10 c 0.4633,2.2822 2.48104,4 4.9,4 2.76142,0 5,-2.2386 5,-5 C 30,6.23858 27.76142,4 25,4 22.58104,4 20.5633,5.71776 20.1,8 H 11.9 C 11.4367,5.71776 9.419,4 7,4 4.2386,4 2,6.23858 2,9 c 0,2.7614 2.2386,5 5,5 2.419,0 4.4367,-1.7178 4.9,-4 H 14 v 9 c 0,2.7614 2.2386,5 5,5 h 1.1 c 0.4633,2.2822 2.48104,4 4.9,4 2.76142,0 5,-2.2386 5,-5 0,-2.7614 -2.23858,-5 -5,-5 -2.41896,0 -4.4367,1.7178 -4.9,4 H 19 c -1.6569,0 -3,-1.3431 -3,-3 v -9 z"
     fill="#212121"
     id="path1" />
</svg>
