<?xml version="1.0" encoding="utf-8"?>
<!-- Generator: Adobe Illustrator 21.1.0, SVG Export Plug-In . SVG Version: 6.00 Build 0)  -->
<svg version="1.1" id="Capa_1" xmlns="http://www.w3.org/2000/svg" xmlns:xlink="http://www.w3.org/1999/xlink" x="0px" y="0px"
	 viewBox="0 0 792 612" style="enable-background:new 0 0 792 612;" xml:space="preserve">
<style type="text/css">
	.st0{fill:#1D1D1B;}
	.st1{fill:#FEFEFE;}
	.st2{fill:#F4C871;}
	.st3{fill:#E28686;}
	.st4{fill:#F7A4A4;}
	.st5{clip-path:url(#SVGID_2_);fill:#1D1E1B;}
	.st6{fill:#FFFFFF;}
	.st7{fill:#1D1E1B;}
	.st8{fill:#F4C870;}
	.st9{fill:#F4A3A4;}
</style>
<g>
	<path class="st0" d="M237,177.9c1,0,2,0,2.9,0c6.7,0.6,10.4,5.3,9.5,12.2c-0.2,1.7-0.6,3.4-1.3,5.1c0.5,0.3,0.8,0,1.2-0.2
		c8.9-4.8,18.3-7.5,28.5-7.7c16.1-0.2,29.9,5.3,41.7,16.2c10.9,10.1,17.2,22.7,20.5,37c1.9,8.3,2.8,16.7,3.9,25.1
		c1.3,10.4,2.8,20.8,6.7,30.7c5.1,13.1,12.9,24.4,23.1,34.2c4.3,4.2,9,8,14,11.4c3.2,2.2,13.7,5.7,15.5,8.7
		c3.8,6.4-17.7,12.6-22.4,12.8c-6.6,0.2-13.2,0-19.7-1.4c-1.7-0.4-3.4-0.9-5-1.6c-1.6-0.7-3.1-1.6-4.7-2.6c0.1,2.5,0.3,4.9,0.4,7.3
		c0.3,6.1,0.1,12.1-0.2,18.2c-0.5,8.5-0.8,17-2,25.4c-1.8,12.5-5.6,24.3-13.2,34.6c-3.7,4.9-8.2,9-13.3,12.3
		c-0.7,0.5-0.8,0.8-0.3,1.5c1.3,2.2,3.2,4,5,5.8c1.8,1.8,3.7,3.5,5.1,5.7c1.5,2.2,2.1,4.6,1.4,7.2c-0.5,2-1.9,3.1-4,3.1
		c-2.2,0-4.1-0.8-6-1.7c-0.7-0.3-1-0.3-1,0.5c0,0.4-0.1,0.9-0.1,1.3c-0.9,5.1-5,7.3-9.8,5.2c-1.8-0.8-3.3-2-4.7-3.4
		c-0.4-0.4-0.8-0.9-1.3-1.3c-0.3,0.6-0.6,1.2-1,1.7c-2.8,4.6-7.5,5.6-12.1,2.6c-2.8-1.8-4.2-4.6-5.1-7.7c-0.7-2.3-1-4.6-1.2-6.9
		c0-0.5-0.1-0.9-0.8-0.8c-5.1,0.9-10.2,1.2-15.4,1.4c-0.7,0-0.8,0.3-0.8,0.9c-0.2,3.2-0.7,6.4-1.9,9.5c-1.1,2.8-2.7,5.1-5.5,6.5
		c-4.8,2.4-9.4,0.8-11.7-4.1c-0.9,0.7-1.8,1.3-2.7,1.9c-2.1,1.4-4.4,2.7-7,2.7c-3.2,0-6.4-1.9-6.3-5.8c0-0.5-0.1-1-0.2-1.6
		c-1.3,0.6-2.4,1.3-3.6,1.7c-3.4,1.1-6,0-7.3-2.9c-0.8-1.9-0.3-3.6,0.6-5.3c1.6-2.9,3.6-5.5,5.7-8c0.9-1.1,1.9-2.1,2.9-3.2
		c-1.5-0.9-3-1.7-4.4-2.6c-8.4-5.2-13.9-12.7-17.4-21.8c-4.2-11.1-7-22.5-8.5-34.2c-0.9-6.7-1.3-13.5-1.3-20.3
		c0-8.2,0.6-16.3,2-24.3c0.1-0.4,0.1-0.8,0.1-1.2c-0.4-0.2-0.5,0.1-0.7,0.3c-8.4,7.6-20,11.4-31.3,9.8c-6.2-0.9-13.7-4.1-18.6-7.9
		c-2.2-1.6-5.2-4-4.8-7.1c0.7-5,8.2-4.7,11.9-6c21.8-7.9,35.9-22.8,41.8-45.3c2.1-8.1,3.2-16.4,4.1-24.8c1.5-14.7,4-29.3,9.6-43.1
		c2-5,4.4-9.7,7.3-14.3c0.2-0.3,0.4-0.6,0.7-1.1c-3,0.2-5.9,0-8.6-0.9c-5.3-1.7-9.5-4.7-11.6-10.1c-1.4-3.6-1-7.1,1.4-10.2
		c2-2.6,4.5-4.6,7.6-5.8c4.5-1.8,8.3-0.8,11.5,2.9c1.6,1.9,2.8,4,3.8,6.2c0.1,0.1,0.1,0.3,0.3,0.3c-0.1-0.3,0.1-0.5,0-0.8
		c-0.3-3.9-0.5-7.8,0.2-11.7c0.5-2.6,1.2-5,2.8-7.1C233.1,179.2,234.8,178.2,237,177.9z"/>
	<path class="st1" d="M222.9,362.4c-0.1-11.6,0.2-23.1,0.6-34.6c0.6-15.1,1.4-30.1,2.7-45.1c0.7-8.3,1.3-16.6,2.5-24.8
		c1.2-8.8,3.1-17.4,7.7-25.1c3.5-6,8.2-10.7,14.7-13.4c3-1.3,6.1-1.9,9.4-1.4c5.3,0.7,8.7,3.9,10.7,8.6c2.2,5.2,2.9,10.8,2.7,16.4
		c-0.1,5-0.9,9.9-2,14.8c-0.2,0.8-0.6,1.3-1.4,1.6c-4.8,1.9-8.9,4.7-11.3,9.4c-0.3,0.5-0.5,0.5-0.9,0.2c-2.2-1.1-4.3-2.4-6.2-3.8
		c-1.3-0.9-2.1-0.9-2.8,0c-0.7,1-0.5,2.3,0.7,3.1c2.2,1.7,4.6,3.1,7.1,4.3c0.9,0.4,1.4,1,1.8,2c2.7,7.6,7.7,12.7,15.7,14.4
		c4.2,0.9,8.1-0.2,11.7-2.4c4.8-2.9,8.2-7.1,10.7-12.1c0.4-0.8,0.9-1.3,1.7-1.7c2.6-1.2,5.1-2.7,7.4-4.4c0.7-0.5,1.2-1.2,1.1-2.1
		c-0.2-1.6-1.5-2.3-2.9-1.3c-2,1.4-4.1,2.8-6.3,3.9c-0.3,0.2-0.6,0.6-1-0.1c-2.6-4.9-6.9-7.7-12-9.6c-0.9-0.3-1.2-0.8-1.2-1.7
		c-0.3-5.9-0.5-11.9,0-17.8c0.6-5.8,1.6-11.5,4.4-16.7c2.7-4.9,6.5-6.7,12-5.8c2.8,0.5,5.4,1.7,7.7,3.4c5.4,3.9,9.1,9.1,12,15
		c3.6,7.5,5.7,15.5,7.3,23.6c2.4,11.6,3.6,23.4,4.4,35.3c0.8,11.9,1.7,23.8,2.5,35.7c0.8,11.4,1.6,22.8,2,34.2
		c0.3,7.4,0.5,14.8,0.6,22.2c0.1,10-0.2,20-1.4,29.9c-1.3,10.5-3.6,20.8-7.6,30.7c-0.2,0.5-0.6,0.8-1,1.1c-5.6,5-12.1,8.3-19.1,10.7
		c-14.2,5-28.9,7.2-43.9,6.5c-8.2-0.4-16.3-1.8-23.9-4.9c-1.6-0.7-3.1-1.4-4.7-2.2c-1.1-0.5-1.9-1-2.3-2.4c-0.4-1.7-1.4-3.3-2-5
		c-3-7.8-4.7-15.8-5.6-24.1c-1.2-10-1.4-20.1-1.7-30.1C222.9,385.4,222.8,373.9,222.9,362.4z"/>
	<path class="st0" d="M227.1,453.2c-3.2-2.7-5.8-5.7-7.9-9.3c-3.3-5.6-5.5-11.8-7.4-18c-3.4-10.9-5.1-22.1-5.7-33.4
		c-0.7-13.9,0.5-27.6,3.4-41.2c0.4-2.1-0.4-3.3-2.1-3c-0.9,0.1-1.2,0.8-1.7,1.4c-4.5,6.2-10.3,10.8-17.7,12.9
		c-13.6,4-25.6,1-35.7-9.2c-0.1-0.1-0.2-0.3-0.4-0.5c2.7-0.6,5.3-1.1,7.8-1.9c24.2-7.9,39.9-23.9,46.8-48.5c2-7.1,2.8-14.3,3.6-21.6
		c1.1-10.2,1.9-20.4,4.3-30.3c2.9-12,7.6-23.3,15.1-33.2c9.5-12.6,21.8-21.3,37.3-24.8c18.5-4.2,34.9,0.2,49.1,12.7
		c10.4,9.3,16.7,21.1,20,34.5c1.8,7.1,2.7,14.4,3.6,21.6c1.3,10.1,2.3,20.3,5.3,30.1c4.4,14.2,11.9,26.6,22,37.5
		c8.9,9.6,19.3,17.3,31,23.2c0.2,0.1,0.3,0.2,0.6,0.4c-5.1,3.3-10.3,6.3-16.4,6.7c-6.3,0.5-12.5,0.6-18.7-0.7
		c-3.3-0.7-6.5-1.7-9.2-3.8c-1.9-1.5-3.3-3.3-4-5.7c-0.4-1.3-1.3-1.9-2.4-1.5c-1.1,0.3-1.6,1.3-1.3,2.6c1.9,9.3,1.9,18.7,1.4,28.1
		c-0.3,6.4-0.6,12.8-1,19.3c-0.7,11.8-2.6,23.3-7.8,34.1c-1.1,2.2-2.2,4.3-3.6,6.4c-0.1,0.2-0.3,0.4-0.6,0.5
		c0.4-1.5,0.8-3.1,1.2-4.6c2.3-9.1,3.4-18.4,4-27.8c0.5-8.5,0.5-17.1,0.3-25.7c-0.1-8.4-0.3-16.8-0.9-25.1c-0.5-7-1-14-1.6-21
		c-0.6-7.9-1.1-15.9-1.6-23.8c-0.7-12.3-1.3-24.7-2.9-36.9c-1.6-11.9-3.8-23.6-8.1-34.9c-2.4-6.3-5.6-12.3-10.6-17.1
		c-4.3-4.1-9.2-7.1-15.1-7.9c-6.1-0.9-10.8,1.4-14.1,6.5c-3.1,4.8-4.5,10.2-5.3,15.7c-0.9,6.6-0.7,13.3-0.3,20c0,0.7,0,1.1-0.9,1.1
		c-0.7,0-1.4,0.1-2,0.2c-0.8,0.2-0.9-0.1-0.8-0.8c1.1-5.2,1.7-10.5,1.6-15.8c0-5.3-0.7-10.5-2.7-15.5c-4.8-11.9-17-13.2-25-9.7
		c-5.8,2.5-10.2,6.7-13.9,11.7c-5.5,7.4-8.6,15.9-10.2,24.9c-1.5,8.2-2.1,16.6-2.9,24.9c-0.8,9.1-1.5,18.3-2,27.5
		c-0.4,7.5-0.8,14.9-1.1,22.4c-0.6,15.1-0.8,30.2-0.7,45.3c0.1,11.2,0.3,22.5,0.6,33.7c0.3,10,0.9,19.9,2.8,29.8
		c1.1,5.6,2.5,11.1,4.5,16.5C227.1,452.3,227.4,452.7,227.1,453.2z"/>
	<path class="st2" d="M330,472.8c0,1.6-0.7,2.1-2.2,1.7c-1.6-0.5-3-1.4-4.5-2.3c-2.2-1.3-3.5-0.6-3.7,2c-0.1,1.6-0.2,3.1-0.8,4.6
		c-0.6,1.8-1.9,2.4-3.7,1.8c-1.9-0.6-3.4-1.8-4.6-3.3c-0.9-1-1.7-2-2.5-3.1c-0.5-0.7-1.2-1-2-0.8c-0.8,0.2-1.3,0.7-1.5,1.5
		c-0.3,1.4-0.8,2.8-1.5,4c-1.6,2.5-3.8,3.1-6.3,1.6c-2.8-1.6-3.9-4.3-4.5-7.3c-0.3-1.6-0.4-3.2-0.6-4.7c-0.1-0.9,0.2-1.1,1-1.3
		c5.8-1.1,11.6-2.7,17.1-4.8c2.8-1.1,5.6-2.3,8.2-3.8c0.7-0.4,1-0.3,1.4,0.4c1.3,2.4,3.5,4.1,5.4,6.1c1.3,1.4,2.8,2.8,3.9,4.4
		C329.5,470.4,330,471.5,330,472.8z"/>
	<path class="st2" d="M267.1,470.7c-0.3,3.4-0.7,6.6-2.4,9.4c-1.6,2.5-3.8,3.6-6.7,3.4c-2.1-0.1-3.1-1.5-2.9-3.6
		c0.1-0.4,0.2-0.8,0.2-1.2c0-0.8-0.4-1.5-1.1-1.9c-0.7-0.4-1.4-0.2-2,0.3c-1.5,1.1-2.9,2.2-4.3,3.4c-1.7,1.4-3.8,2-5.9,2.5
		c-1.1,0.2-1.8-0.3-2.2-1.5c-0.5-1.2-0.1-2.6-0.5-3.8c-0.2-0.6-0.3-1.3-0.6-1.9c-0.7-1.6-2-1.9-3.4-0.8c-0.9,0.7-1.7,1.5-2.7,2
		c-1,0.5-2,1-3,0.1c-0.9-0.9-1.1-2.7-0.3-3.7c2.2-3,4.5-5.9,7.1-8.6c0.9-1,1.6-1.1,2.9-0.6c8.3,3.2,16.9,4.7,25.7,5.1
		c0.2,0,0.4,0,0.6,0C266.8,469.3,267.6,469.5,267.1,470.7z"/>
	<path class="st3" d="M222.2,214.4c-5.3-0.2-9.8-2-13.2-6.2c-2.7-3.4-2.4-7.3,0.8-10.3c1.5-1.4,3.2-2.4,5-3.2c2.2-1,4.1-0.6,5.9,1
		c1.5,1.3,2.5,3,3.4,4.7c1.9,3.7,3.1,7.6,4.2,11.5c0.3,1-0.4,1.5-1.2,1.7C225.5,214.2,223.9,214.5,222.2,214.4z"/>
	<path class="st2" d="M277.9,273.7c-5,0-9.8-0.9-14.6-2.5c-0.8-0.3-1-0.6-0.5-1.3c2.7-4.2,6.7-6.6,11.4-7.7
		c5.9-1.4,10.8,0.8,15.4,4.2c1.4,1,2.5,2.3,3.4,3.7c0.4,0.6,0.3,0.9-0.4,1.2C287.8,272.8,282.9,273.6,277.9,273.7z"/>
	<path class="st3" d="M233.7,206.7c-1.2-6.5-2.5-12.7-0.9-19.1c0.7-3,2.3-5.4,5.7-6c1.7-0.3,3.2,0.3,4.5,1.4c3,2.5,3.6,5.7,2.5,9.3
		c-1.1,3.6-3.2,6.6-6,9.1C237.7,203.1,235.7,204.7,233.7,206.7z"/>
	<path class="st2" d="M262.9,275.2c9.7,3,19.2,3.1,29.1,0.3c-3.6,5.3-7.6,9.4-14.1,10c-4.6,0.5-8.2-1.6-11.3-4.8
		C265.1,279.2,263.9,277.4,262.9,275.2z"/>
	<path class="st0" d="M249.8,251c-3.3,0-6-2.6-6-5.9c0-3.3,2.6-6,6-6c3.3,0,5.9,2.6,5.9,5.9C255.7,248.3,253.1,251,249.8,251z"/>
	<path class="st0" d="M311.2,245.1c0,3.3-2.7,5.9-6,5.9c-3.3,0-6-2.6-6-5.9c0-3.3,2.6-6,6-6C308.6,239.1,311.2,241.8,311.2,245.1z"
		/>
	<path class="st4" d="M241.9,261.5c0,2.5-2.5,4.9-5.2,4.9c-2.1,0-3.6-1.7-3.6-4.1c0-3,2-5.3,4.6-5.4
		C239.9,256.9,241.8,259,241.9,261.5z"/>
	<path class="st4" d="M313.1,261.9c0.1-1.1,0.3-2.5,1.4-3.6c1.8-1.8,4.4-1.9,6-0.2c1.8,1.9,1.8,4.9-0.1,6.7c-1,0.9-2.2,1.5-3.5,1.6
		C314.7,266.6,313.1,264.9,313.1,261.9z"/>
	<g>
		<g>
			<defs>
				<rect id="SVGID_1_" x="374.6" y="186.6" width="254.6" height="300.3"/>
			</defs>
			<clipPath id="SVGID_2_">
				<use xlink:href="#SVGID_1_"  style="overflow:visible;"/>
			</clipPath>
			<path class="st5" d="M473.4,195.4c9-5.4,19.2-8.6,30.1-8.7c16.1-0.2,29.9,5.3,41.7,16.2c10.9,10.1,17.2,22.7,20.5,37
				c1.9,8.3,2.8,16.7,3.9,25.1c1.3,10.4,2.8,20.8,6.7,30.7c5.1,13.1,12.9,24.4,23.1,34.2c4.3,4.2,9,8,14,11.4
				c3.2,2.2,13.7,5.7,15.5,8.7c3.8,6.4-17.7,12.6-22.4,12.8c-6.6,0.2-13.2,0-19.7-1.4c-1.7-0.4-3.4-0.9-5-1.6
				c-1.6-0.7-3.1-1.6-4.7-2.6c0.2,2.5,0.3,4.9,0.4,7.3c0.3,6.1,0.1,12.1-0.2,18.2c-0.5,8.5-0.8,17-2,25.4
				c-1.8,12.5-5.6,24.3-13.2,34.6c-3.7,4.9-8.2,9-13.3,12.3c-0.7,0.5-0.8,0.8-0.3,1.5c1.3,2.2,3.2,4,5,5.8c1.8,1.8,3.7,3.5,5.1,5.7
				c1.5,2.2,2.1,4.6,1.4,7.2c-0.5,2-1.9,3.1-4,3.1c-2.2,0-4.1-0.8-6-1.7c-0.7-0.3-1-0.3-1,0.5c0,0.4-0.1,0.9-0.1,1.3
				c-0.9,5.1-5,7.3-9.8,5.2c-1.8-0.8-3.3-2-4.7-3.4c-0.4-0.4-0.8-0.9-1.3-1.3c-0.3,0.6-0.6,1.2-1,1.7c-2.8,4.6-7.5,5.6-12.1,2.6
				c-2.8-1.8-4.2-4.6-5.1-7.7c-0.7-2.3-1-4.6-1.2-6.9c0-0.5-0.1-0.9-0.8-0.8c-5.1,0.9-10.2,1.2-15.4,1.4c-0.7,0-0.8,0.3-0.8,0.9
				c-0.2,3.2-0.7,6.4-1.9,9.5c-1.1,2.8-2.7,5.1-5.5,6.5c-4.8,2.4-9.4,0.8-11.7-4.1c-0.9,0.7-1.8,1.3-2.7,1.9c-2.1,1.4-4.4,2.7-7,2.7
				c-3.2,0-6.4-1.9-6.3-5.8c0-0.5-0.1-1-0.2-1.6c-1.3,0.6-2.4,1.3-3.6,1.7c-3.4,1.1-6,0-7.3-2.9c-0.8-1.9-0.3-3.6,0.6-5.3
				c1.6-2.9,3.6-5.5,5.7-8c0.9-1.1,1.9-2.1,2.9-3.2c-1.5-0.9-3-1.7-4.4-2.6c-8.4-5.2-13.9-12.7-17.4-21.8c-4.2-11-7-22.5-8.5-34.2
				c-0.9-6.7-1.3-13.5-1.3-20.3c0-8.2,0.6-16.3,2-24.3c0.1-0.4,0.1-0.8,0.1-1.2c-0.4-0.2-0.5,0.1-0.7,0.3c-8.4,7.6-20,11.4-31.3,9.8
				c-6.2-0.9-13.7-4.1-18.6-7.9c-2.2-1.6-5.2-4-4.8-7.1c0.7-5,8.2-4.7,11.9-6c21.8-7.9,35.9-22.8,41.8-45.3
				c2.1-8.1,3.2-16.4,4.1-24.8c1.5-14.7,4-29.3,9.6-43.1C448.3,217.5,459.3,203.8,473.4,195.4L473.4,195.4z"/>
		</g>
		<path class="st6" d="M448.5,361.8c-0.1-11.6,0.2-23.1,0.6-34.6c0.6-15.1,1.4-30.1,2.7-45.1c0.7-8.3,1.3-16.6,2.5-24.8
			c1.2-8.8,3.1-17.4,7.7-25.1c3.5-6,8.2-10.7,14.7-13.4c3-1.3,6.1-1.9,9.4-1.4c5.3,0.7,8.7,3.9,10.7,8.6c2.2,5.2,2.9,10.8,2.7,16.4
			c-0.1,5-0.9,9.9-2,14.8c-0.2,0.8-0.6,1.3-1.4,1.6c-4.8,1.9-8.9,4.7-11.3,9.4c-0.3,0.5-0.5,0.5-0.9,0.2c-2.2-1.1-4.3-2.4-6.2-3.8
			c-1.3-0.9-2.1-0.9-2.8,0c-0.7,1-0.5,2.3,0.7,3.1c2.2,1.7,4.6,3.1,7.1,4.3c0.9,0.4,1.4,1,1.8,2c2.7,7.6,7.7,12.7,15.7,14.4
			c4.2,0.9,8.1-0.2,11.7-2.4c4.8-2.9,8.2-7.1,10.7-12.1c0.4-0.8,0.9-1.3,1.7-1.7c2.6-1.2,5.1-2.7,7.4-4.4c0.7-0.5,1.2-1.2,1.1-2.1
			c-0.2-1.6-1.5-2.3-2.9-1.3c-2,1.4-4.1,2.8-6.3,3.9c-0.3,0.2-0.6,0.6-1-0.1c-2.6-4.9-6.9-7.7-12-9.6c-0.9-0.3-1.2-0.8-1.2-1.7
			c-0.3-5.9-0.5-11.9,0-17.8c0.6-5.8,1.6-11.5,4.4-16.7c2.7-4.9,6.5-6.7,12-5.8c2.8,0.5,5.4,1.7,7.7,3.4c5.4,3.9,9.1,9.1,12,15
			c3.6,7.5,5.7,15.5,7.3,23.6c2.4,11.6,3.6,23.4,4.4,35.3c0.8,11.9,1.7,23.8,2.5,35.7c0.8,11.4,1.6,22.8,2,34.2
			c0.3,7.4,0.5,14.8,0.6,22.2c0.1,10-0.2,20-1.4,29.9c-1.3,10.5-3.6,20.8-7.6,30.7c-0.2,0.5-0.6,0.8-1,1.1
			c-5.6,5-12.1,8.3-19.1,10.7c-14.2,5-28.9,7.2-43.9,6.5c-8.2-0.4-16.3-1.8-23.9-4.9c-1.6-0.7-3.1-1.4-4.7-2.2
			c-1.1-0.5-1.9-1-2.3-2.4c-0.4-1.7-1.4-3.3-2-5c-3-7.8-4.7-15.8-5.6-24.1c-1.2-10-1.4-20.1-1.7-30.1
			C448.6,384.8,448.5,373.3,448.5,361.8L448.5,361.8z"/>
		<path class="st7" d="M452.8,452.6c-3.2-2.7-5.8-5.7-7.9-9.3c-3.3-5.6-5.5-11.8-7.4-18c-3.4-10.9-5.1-22.1-5.7-33.4
			c-0.7-13.9,0.5-27.6,3.4-41.2c0.4-2.1-0.4-3.3-2.1-3c-0.9,0.1-1.2,0.8-1.7,1.4c-4.5,6.2-10.3,10.8-17.7,12.9
			c-13.6,4-25.6,1-35.7-9.2c-0.1-0.1-0.2-0.3-0.4-0.5c2.7-0.6,5.3-1.1,7.8-1.9c24.2-7.9,39.9-23.9,46.8-48.5
			c2-7.1,2.8-14.3,3.6-21.6c1.1-10.2,1.9-20.4,4.3-30.3c2.9-12,7.6-23.3,15.1-33.2c9.5-12.6,21.8-21.3,37.3-24.8
			c18.5-4.2,34.9,0.2,49.1,12.7c10.4,9.3,16.7,21.1,20,34.5c1.8,7.1,2.7,14.4,3.6,21.6c1.3,10.1,2.3,20.3,5.3,30.1
			c4.4,14.2,11.9,26.6,22,37.5c8.9,9.6,19.3,17.3,31,23.2c0.2,0.1,0.3,0.2,0.6,0.4c-5.1,3.3-10.3,6.3-16.4,6.7
			c-6.3,0.5-12.5,0.6-18.7-0.7c-3.3-0.7-6.5-1.7-9.2-3.8c-1.9-1.5-3.3-3.3-4-5.7c-0.4-1.3-1.3-1.9-2.4-1.5c-1.1,0.3-1.6,1.3-1.3,2.6
			c1.9,9.3,1.9,18.7,1.4,28.1c-0.3,6.4-0.7,12.8-1,19.3c-0.7,11.8-2.6,23.3-7.8,34.1c-1.1,2.2-2.2,4.3-3.6,6.4
			c-0.1,0.2-0.3,0.4-0.6,0.5c0.4-1.5,0.8-3.1,1.2-4.6c2.3-9.1,3.4-18.4,4-27.8c0.5-8.5,0.5-17.1,0.3-25.7
			c-0.1-8.4-0.3-16.8-0.9-25.1c-0.5-7-1-14-1.6-21c-0.6-7.9-1.1-15.9-1.6-23.8c-0.6-12.3-1.3-24.7-2.9-36.9
			c-1.6-11.9-3.8-23.6-8.1-34.9c-2.4-6.3-5.6-12.3-10.6-17.1c-4.3-4.1-9.2-7.1-15.1-7.9c-6.1-0.9-10.8,1.4-14.1,6.5
			c-3.1,4.8-4.5,10.2-5.3,15.7c-0.9,6.6-0.7,13.3-0.3,20c0,0.7,0,1.1-0.9,1.1c-0.7,0-1.4,0.1-2,0.2c-0.8,0.2-0.9-0.1-0.8-0.8
			c1.1-5.2,1.7-10.5,1.6-15.8c0-5.3-0.7-10.5-2.7-15.5c-4.8-11.9-17-13.2-25-9.7c-5.8,2.5-10.2,6.7-13.9,11.7
			c-5.5,7.4-8.6,15.9-10.2,24.9c-1.5,8.2-2.1,16.6-2.9,24.9c-0.8,9.1-1.5,18.3-2,27.5c-0.4,7.5-0.8,14.9-1.1,22.4
			c-0.6,15.1-0.8,30.2-0.7,45.3c0.1,11.2,0.3,22.5,0.6,33.7c0.3,10,0.9,19.9,2.8,29.8c1.1,5.6,2.5,11.1,4.5,16.5
			C452.7,451.7,453,452,452.8,452.6L452.8,452.6z"/>
		<path class="st8" d="M555.6,472.2c0,1.6-0.7,2.1-2.2,1.7c-1.6-0.5-3-1.4-4.5-2.3c-2.2-1.3-3.5-0.6-3.7,2c-0.1,1.6-0.2,3.1-0.8,4.6
			c-0.6,1.8-1.9,2.4-3.7,1.8c-1.9-0.6-3.4-1.8-4.6-3.3c-0.9-1-1.7-2-2.5-3.1c-0.5-0.7-1.2-1-2-0.8c-0.8,0.2-1.3,0.7-1.5,1.5
			c-0.3,1.4-0.8,2.8-1.5,4c-1.6,2.5-3.8,3.1-6.3,1.6c-2.8-1.6-3.9-4.3-4.5-7.3c-0.3-1.6-0.4-3.2-0.6-4.7c-0.1-0.9,0.2-1.1,1-1.3
			c5.8-1.1,11.6-2.7,17.1-4.8c2.8-1.1,5.6-2.3,8.2-3.8c0.7-0.4,1-0.3,1.4,0.4c1.3,2.4,3.5,4.1,5.4,6.1c1.3,1.4,2.8,2.8,3.9,4.4
			C555.1,469.8,555.6,470.9,555.6,472.2L555.6,472.2z"/>
		<path class="st8" d="M492.7,470.1c-0.3,3.4-0.7,6.6-2.4,9.4c-1.6,2.5-3.8,3.6-6.7,3.4c-2.1-0.1-3.1-1.5-2.9-3.6
			c0.1-0.4,0.2-0.8,0.2-1.2c0-0.8-0.4-1.5-1.1-1.9c-0.7-0.4-1.4-0.2-2,0.3c-1.5,1.1-2.9,2.2-4.3,3.4c-1.7,1.4-3.8,2-5.9,2.5
			c-1.1,0.2-1.8-0.3-2.2-1.5c-0.5-1.2-0.1-2.6-0.5-3.8c-0.2-0.6-0.3-1.3-0.6-1.9c-0.7-1.6-2-1.9-3.4-0.8c-0.9,0.7-1.7,1.5-2.7,2
			c-1,0.5-2,1-3,0.1c-0.9-0.9-1.1-2.7-0.3-3.7c2.2-3,4.5-5.9,7.1-8.6c0.9-1,1.6-1.1,2.9-0.6c8.3,3.2,16.9,4.7,25.7,5.1
			c0.2,0,0.4,0,0.6,0C492.4,468.7,493.2,468.9,492.7,470.1L492.7,470.1z"/>
		<path class="st8" d="M503.6,273.1c-5,0-9.8-0.9-14.6-2.5c-0.8-0.3-1-0.6-0.5-1.3c2.7-4.2,6.7-6.6,11.4-7.7
			c5.9-1.4,10.8,0.8,15.4,4.2c1.4,1,2.5,2.3,3.4,3.7c0.4,0.6,0.3,0.9-0.4,1.2C513.5,272.2,508.6,273,503.6,273.1L503.6,273.1z"/>
		<path class="st8" d="M488.6,274.5c9.7,3,19.2,3.1,29.1,0.3c-3.6,5.3-7.6,9.4-14.1,10c-4.6,0.5-8.2-1.6-11.3-4.8
			C490.8,278.5,489.5,276.7,488.6,274.5L488.6,274.5z"/>
		<path class="st7" d="M475.4,250.4c-3.3,0-6-2.6-6-5.9c0-3.3,2.6-6,6-6c3.3,0,5.9,2.6,5.9,5.9C481.4,247.7,478.7,250.4,475.4,250.4
			L475.4,250.4z"/>
		<path class="st7" d="M536.9,244.5c0,3.3-2.7,5.9-6,5.9c-3.3,0-6-2.6-6-5.9c0-3.3,2.6-6,6-6C534.2,238.5,536.9,241.2,536.9,244.5
			L536.9,244.5z"/>
		<path class="st9" d="M467.5,260.9c0,2.5-2.5,4.9-5.2,4.9c-2.1,0-3.6-1.8-3.6-4.1c0-3,2-5.3,4.6-5.4
			C465.6,256.3,467.5,258.4,467.5,260.9L467.5,260.9z"/>
		<path class="st9" d="M538.8,261.3c0.1-1.1,0.3-2.5,1.4-3.6c1.8-1.8,4.4-1.9,6-0.2c1.8,1.9,1.8,4.9-0.1,6.7c-1,0.9-2.2,1.5-3.5,1.6
			C540.4,266,538.8,264.2,538.8,261.3L538.8,261.3z"/>
	</g>
</g>
</svg>
