<?xml version="1.0" encoding="UTF-8" standalone="no"?>
<svg
   viewBox="0 0 512 512"
   version="1.1"
   id="svg1"
   sodipodi:docname="circle-info-blue.svg"
   inkscape:version="1.3.2 (091e20e, 2023-11-25, custom)"
   xmlns:inkscape="http://www.inkscape.org/namespaces/inkscape"
   xmlns:sodipodi="http://sodipodi.sourceforge.net/DTD/sodipodi-0.dtd"
   xmlns="http://www.w3.org/2000/svg"
   xmlns:svg="http://www.w3.org/2000/svg">
  <defs
     id="defs1" />
  <sodipodi:namedview
     id="namedview1"
     pagecolor="#ffffff"
     bordercolor="#000000"
     borderopacity="0.25"
     inkscape:showpageshadow="2"
     inkscape:pageopacity="0.0"
     inkscape:pagecheckerboard="0"
     inkscape:deskcolor="#d1d1d1"
     showgrid="false"
     inkscape:zoom="1.5898438"
     inkscape:cx="255.6855"
     inkscape:cy="255.99999"
     inkscape:window-width="1920"
     inkscape:window-height="1010"
     inkscape:window-x="-6"
     inkscape:window-y="-6"
     inkscape:window-maximized="1"
     inkscape:current-layer="svg1" />
  <path
     d="m 256,512 a 256,256 0 1 0 0,-512 256,256 0 1 0 0,512 z"
     id="path1"
     style="fill:#60afff;fill-opacity:1" />
  <!--! Font Awesome Free 6.4.0 by @fontawesome - https://fontawesome.com License - https://fontawesome.com/license/free (Icons: CC BY 4.0, Fonts: SIL OFL 1.1, Code: MIT License) Copyright 2023 Fonticons, Inc. -->
  <g
     id="g2"
     transform="translate(0,4.38991)">
    <path
       d="m 256,123.61009 a 32,32 0 1 1 0,64 32,32 0 1 1 0,-64 z"
       id="path3" />
    <path
       d="m 216,331.61009 h 24 v -64 h -24 c -13.3,0 -24,-10.7 -24,-24 0,-13.3 10.7,-24 24,-24 h 48 c 13.3,0 24,10.7 24,24 v 88 h 8 c 13.3,0 24,10.7 24,24 0,13.3 -10.7,24 -24,24 h -80 c -13.3,0 -24,-10.7 -24,-24 0,-13.3 10.7,-24 24,-24 z"
       id="path2" />
  </g>
</svg>
