<?xml version="1.0" encoding="UTF-8" standalone="no"?>
<svg
   viewBox="0 0 512 512"
   version="1.1"
   id="svg1"
   sodipodi:docname="triangle-exclamation-yellow.svg"
   inkscape:version="1.3.2 (091e20e, 2023-11-25, custom)"
   xmlns:inkscape="http://www.inkscape.org/namespaces/inkscape"
   xmlns:sodipodi="http://sodipodi.sourceforge.net/DTD/sodipodi-0.dtd"
   xmlns="http://www.w3.org/2000/svg"
   xmlns:svg="http://www.w3.org/2000/svg">
  <defs
     id="defs1" />
  <sodipodi:namedview
     id="namedview1"
     pagecolor="#ffffff"
     bordercolor="#000000"
     borderopacity="0.25"
     inkscape:showpageshadow="2"
     inkscape:pageopacity="0.0"
     inkscape:pagecheckerboard="0"
     inkscape:deskcolor="#d1d1d1"
     inkscape:zoom="1.5898438"
     inkscape:cx="255.6855"
     inkscape:cy="256"
     inkscape:window-width="1920"
     inkscape:window-height="1010"
     inkscape:window-x="-6"
     inkscape:window-y="-6"
     inkscape:window-maximized="1"
     inkscape:current-layer="svg1" />
  <path
     style="fill:#ffe4a0;fill-opacity:1"
     d="m 255.98141,32 c 14.2,0 27.3,7.5 34.5,19.8 l 216,368 c 7.3,12.4 7.3,27.7 0.2,40.1 -7.1,12.4 -20.4,20.1 -34.7,20.1 H 39.981417 c -14.3,0 -27.6,-7.7 -34.6999998,-20.1 -7.1,-12.4 -7,-27.8 0.2,-40.1 L 221.48141,51.8 c 7.2,-12.3 20.3,-19.8 34.5,-19.8 z"
     id="path1" />
  <!--! Font Awesome Free 6.4.0 by @fontawesome - https://fontawesome.com License - https://fontawesome.com/license/free (Icons: CC BY 4.0, Fonts: SIL OFL 1.1, Code: MIT License) Copyright 2023 Fonticons, Inc. -->
  <path
     style="fill:#000000;fill-opacity:1"
     d="m 288,384 a 32,32 0 1 0 -64,0 32,32 0 1 0 64,0 z"
     id="path3" />
  <path
     style="fill:#000000;fill-opacity:1"
     d="m 256,160 c -13.3,0 -24,10.7 -24,24 v 112 c 0,13.3 10.7,24 24,24 13.3,0 24,-10.7 24,-24 V 184 c 0,-13.3 -10.7,-24 -24,-24 z"
     id="path2" />
</svg>
