<?xml version="1.0" encoding="UTF-8" standalone="no"?>
<svg
   width="32"
   height="32"
   viewBox="0 0 32 32"
   fill="none"
   version="1.1"
   id="svg1"
   sodipodi:docname="SignAll.svg"
   inkscape:version="1.3.2 (091e20e, 2023-11-25, custom)"
   xmlns:inkscape="http://www.inkscape.org/namespaces/inkscape"
   xmlns:sodipodi="http://sodipodi.sourceforge.net/DTD/sodipodi-0.dtd"
   xmlns="http://www.w3.org/2000/svg"
   xmlns:svg="http://www.w3.org/2000/svg">
  <defs
     id="defs1" />
  <sodipodi:namedview
     id="namedview1"
     pagecolor="#ffffff"
     bordercolor="#000000"
     borderopacity="0.25"
     inkscape:showpageshadow="2"
     inkscape:pageopacity="0.0"
     inkscape:pagecheckerboard="0"
     inkscape:deskcolor="#d1d1d1"
     inkscape:zoom="12.71875"
     inkscape:cx="36.363636"
     inkscape:cy="15.960688"
     inkscape:window-width="1920"
     inkscape:window-height="1010"
     inkscape:window-x="-6"
     inkscape:window-y="-6"
     inkscape:window-maximized="1"
     inkscape:current-layer="svg1" />
  <path
     d="m 7.9152328,0.91523342 c 0.089793,0 0.1795337,0.0259811 0.2575336,0.0779817 1.6471919,1.09812698 3.4173826,1.81788788 5.3138946,2.16182958 0.175593,0.031848 0.351848,0.061705 0.529576,0.087052 0.228707,0.032684 0.398996,0.2278207 0.398996,0.4588492 v 3.7451164 c 0,3.6134387 -2.142044,6.2500277 -6.3331479,7.8620257 -0.1072485,0.04122 -0.2264552,0.04122 -0.3337047,0 C 6.4093815,14.793104 5.2800651,14.173558 4.3623591,13.450945 2.4076257,11.911748 1.4152333,9.905103 1.4152333,7.4460626 V 3.7009462 c 0,-0.2310285 0.170289,-0.4261592 0.3989953,-0.4588454 C 3.9118689,2.9424517 5.8580365,2.193023 7.6576991,0.99321788 7.7357029,0.94121824 7.82544,0.91523236 7.9152328,0.91523236 Z"
     style="fill:#000000;stroke-width:0.928571"
     id="path7" />
  <path
     d="m 23.259214,0.46191646 c -1.932998,0 -3.5,1.56700204 -3.5,3.50000004 v 0.5 h -0.5 c -1.380699,0 -2.5,1.119301 -2.5,2.5 v 5.9999995 c 0,1.380699 1.119301,2.5 2.5,2.5 h 8 c 1.380699,0 2.5,-1.119301 2.5,-2.5 V 6.9619165 c 0,-1.380699 -1.119301,-2.5 -2.5,-2.5 h -0.5 v -0.5 c 0,-1.932998 -1.567002,-3.50000004 -3.5,-3.50000004 z m 0,2.00000004 c 0.828399,0 1.5,0.671601 1.5,1.5 v 0.5 h -3 v -0.5 c 0,-0.828399 0.671601,-1.5 1.5,-1.5 z m 0,5.5 c 1.104599,0 2,0.895401 2,2 0,1.1045985 -0.895401,1.9999995 -2,1.9999995 -1.104599,0 -2,-0.895401 -2,-1.9999995 0,-1.104599 0.895401,-2 2,-2 z"
     style="fill:#000000"
     id="path8" />
  <path
     d="m 20.714751,17.852593 c -0.970129,-0.0026 -1.938423,0.364826 -2.677009,1.101128 -1.477172,1.472693 -1.471159,3.865021 0.01244,5.344076 l 5.493213,5.473329 c 0.227802,0.227038 0.597424,0.227038 0.825226,0 l 5.463387,-5.441014 c 1.473709,-1.477403 1.468979,-3.864767 -0.01492,-5.344077 -1.486309,-1.481679 -3.889113,-1.48768 -5.368933,-0.01248 l -0.519498,0.519539 -0.529436,-0.526951 C 22.657465,18.226624 21.684882,17.855188 20.714753,17.85259 Z"
     style="fill:#000000;stroke-width:1.27264"
     id="path5" />
  <path
     d="m 7.3171013,16.552826 c 0.329404,-0.671581 1.286715,-0.671581 1.616119,0 l 1.9191207,3.912902 4.302828,0.629167 c 0.736508,0.107641 1.031412,1.011851 0.500046,1.533077 l -3.117335,3.057574 0.734648,4.310328 c 0.125461,0.736028 -0.648127,1.295894 -1.308075,0.94681 l -3.8393217,-2.031082 -3.839317,2.031082 c -0.659942,0.349084 -1.433518,-0.210782 -1.308069,-0.94681 l 0.73469,-4.310328 -3.11734098,-3.057574 c -0.53136,-0.521226 -0.236456,-1.425436 0.50000998,-1.533077 l 4.302816,-0.629167 z"
     fill="#212121"
     id="path1"
     style="stroke-width:0.600007;fill:#000000" />
  <text
     xml:space="preserve"
     style="font-weight:bold;font-size:9px;line-height:1.25;font-family:Arial;-inkscape-font-specification:'Arial Bold';fill:#000000;stroke-width:1.00157"
     x="32.078625"
     y="25.081081"
     id="text8"><tspan
       sodipodi:role="line"
       id="tspan8"
       x="32.078625"
       y="25.081081">internal</tspan></text>
  <text
     xml:space="preserve"
     style="font-weight:bold;font-size:9px;line-height:1.25;font-family:Arial;-inkscape-font-specification:'Arial Bold';fill:#000000;stroke-width:1.00157"
     x="3.2235873"
     y="42.063881"
     id="text9"><tspan
       sodipodi:role="line"
       id="tspan9"
       x="3.2235873"
       y="42.063881">protected</tspan></text>
  <text
     xml:space="preserve"
     style="font-weight:bold;font-size:9px;line-height:1.25;font-family:Arial;-inkscape-font-specification:'Arial Bold';fill:#000000;stroke-width:1.00157"
     x="33.886978"
     y="6.9189191"
     id="text10"><tspan
       sodipodi:role="line"
       id="tspan10"
       x="33.886978"
       y="6.9189191">private</tspan></text>
</svg>
