<?xml version="1.0" encoding="UTF-8" standalone="no"?>
<svg
   width="32"
   height="32"
   viewBox="0 0 32 32"
   fill="none"
   version="1.1"
   id="svg1"
   sodipodi:docname="SignPrivate.svg"
   inkscape:version="1.3.2 (091e20e, 2023-11-25, custom)"
   xmlns:inkscape="http://www.inkscape.org/namespaces/inkscape"
   xmlns:sodipodi="http://sodipodi.sourceforge.net/DTD/sodipodi-0.dtd"
   xmlns="http://www.w3.org/2000/svg"
   xmlns:svg="http://www.w3.org/2000/svg">
  <defs
     id="defs1" />
  <sodipodi:namedview
     id="namedview1"
     pagecolor="#ffffff"
     bordercolor="#000000"
     borderopacity="0.25"
     inkscape:showpageshadow="2"
     inkscape:pageopacity="0.0"
     inkscape:pagecheckerboard="0"
     inkscape:deskcolor="#d1d1d1"
     inkscape:zoom="25.4375"
     inkscape:cx="15.980344"
     inkscape:cy="16"
     inkscape:window-width="1920"
     inkscape:window-height="1010"
     inkscape:window-x="-6"
     inkscape:window-y="-6"
     inkscape:window-maximized="1"
     inkscape:current-layer="svg1" />
  <path
     d="m 24,15.5 c -1.932998,0 -3.5,1.567002 -3.5,3.5 v 0.5 H 20 c -1.380699,0 -2.5,1.119301 -2.5,2.5 v 6 c 0,1.380699 1.119301,2.5 2.5,2.5 h 8 c 1.380699,0 2.5,-1.119301 2.5,-2.5 v -6 c 0,-1.380699 -1.119301,-2.5 -2.5,-2.5 H 27.5 V 19 c 0,-1.932998 -1.567002,-3.5 -3.5,-3.5 z m 0,2 c 0.828399,0 1.5,0.671601 1.5,1.5 v 0.5 h -3 V 19 c 0,-0.828399 0.671601,-1.5 1.5,-1.5 z m 0,5.5 c 1.104599,0 2,0.895401 2,2 0,1.104599 -0.895401,2 -2,2 -1.104599,0 -2,-0.895401 -2,-2 0,-1.104599 0.895401,-2 2,-2 z"
     style="fill:#212121"
     id="path8" />
</svg>
