<?xml version="1.0" encoding="UTF-8" standalone="no"?>
<svg
   width="32"
   height="32"
   viewBox="0 0 32.000001 32.000001"
   fill="none"
   version="1.1"
   id="svg40"
   sodipodi:docname="logo-notext.svg"
   inkscape:version="1.3.2 (091e20e, 2023-11-25, custom)"
   xmlns:inkscape="http://www.inkscape.org/namespaces/inkscape"
   xmlns:sodipodi="http://sodipodi.sourceforge.net/DTD/sodipodi-0.dtd"
   xmlns="http://www.w3.org/2000/svg"
   xmlns:svg="http://www.w3.org/2000/svg"
   xmlns:rdf="http://www.w3.org/1999/02/22-rdf-syntax-ns#"
   xmlns:cc="http://creativecommons.org/ns#"
   xmlns:dc="http://purl.org/dc/elements/1.1/">
  <metadata
     id="metadata46">
    <rdf:RDF>
      <cc:Work
         rdf:about="">
        <dc:format>image/svg+xml</dc:format>
        <dc:type
           rdf:resource="http://purl.org/dc/dcmitype/StillImage" />
      </cc:Work>
    </rdf:RDF>
  </metadata>
  <defs
     id="defs44" />
  <sodipodi:namedview
     pagecolor="#ffffff"
     bordercolor="#666666"
     borderopacity="1"
     objecttolerance="10"
     gridtolerance="10"
     guidetolerance="10"
     inkscape:pageopacity="0"
     inkscape:pageshadow="2"
     inkscape:window-width="1920"
     inkscape:window-height="1010"
     id="namedview42"
     showgrid="false"
     fit-margin-top="0"
     fit-margin-left="0"
     fit-margin-right="0"
     fit-margin-bottom="0"
     inkscape:zoom="11.152084"
     inkscape:cx="24.614234"
     inkscape:cy="11.118998"
     inkscape:window-x="-6"
     inkscape:window-y="-6"
     inkscape:window-maximized="1"
     inkscape:current-layer="svg40"
     inkscape:showpageshadow="2"
     inkscape:pagecheckerboard="0"
     inkscape:deskcolor="#d1d1d1" />
  <g
     id="g1"
     transform="translate(0,3.2764995)">
    <path
       d="m 9.52,15.174501 c 0,1.752 0.6,3.168 1.824,4.2 1.224,1.032 2.76,1.56 4.656,1.56 1.896,0 3.432,-0.528 4.656,-1.56 1.224,-1.032 1.824,-2.448 1.824,-4.2 V 3.7985 h -3.84 v 11.040001 c 0,1.56 -0.888,2.352 -2.64,2.352 -1.752,0 -2.64,-0.792 -2.64,-2.352 V 3.7985 H 9.52 Z"
       fill="#000000"
       id="path28"
       style="stroke-width:1.00157;stroke-dasharray:none" />
    <path
       d="m 14.08,20.598501 h 3.84 V 3.7985 h -3.84 z"
       fill="#000000"
       id="path30"
       style="stroke-width:1.00157;stroke-dasharray:none" />
    <path
       d="m 13.3445,24.917501 -11.331,-5.461 c -1.467,-0.707 -1.467,-1.853 0,-2.559 l 11.332,-5.461 c 1.466,-0.707 3.843,-0.707 5.309,0 l 11.332,5.461 c 1.467,0.706 1.467,1.852 0,2.559 l -11.332,5.461 c -1.466,0.706 -3.844,0.706 -5.31,0 z"
       fill="#bfc4c8"
       id="path32"
       style="stroke-width:1.00157;stroke-dasharray:none" />
    <path
       d="m 13.3445,22.244501 -11.331,-5.461 c -1.467,-0.707 -1.467,-1.852 0,-2.559 l 11.332,-5.4610007 c 1.466,-0.707 3.843,-0.707 5.309,0 l 11.332,5.4610007 c 1.467,0.707 1.467,1.852 0,2.559 l -11.332,5.461 c -1.466,0.706 -3.844,0.706 -5.31,0 z"
       fill="#e0e3e5"
       id="path34"
       style="stroke-width:1.00157;stroke-dasharray:none" />
    <path
       d="m 13.344875,16.685501 -11.331,-5.461 c -1.467,-0.707 -1.467,-1.8530007 0,-2.5590007 L 13.344875,3.2045 c 1.466,-0.707 3.844,-0.707 5.31,0 l 11.332,5.4610003 c 1.466,0.706 1.466,1.8520007 0,2.5590007 l -11.332,5.461 c -1.466,0.706 -3.844,0.706 -5.31,0 z"
       fill="#129bc6"
       id="path36"
       style="stroke-width:1.00157;stroke-dasharray:none" />
    <path
       d="M 13.345,14.010501 2.013,8.5495003 C 0.547,7.8435003 0.547,6.6975 2.013,5.9905 l 11.332,-5.461 c 1.466,-0.706 3.843,-0.706 5.31,0 l 11.332,5.461 c 1.466,0.707 1.466,1.8530003 0,2.5590003 L 18.655,14.010501 c -1.467,0.707 -3.844,0.707 -5.31,0 z"
       fill="#25b5e2"
       id="path38"
       style="stroke-width:1.00157;stroke-dasharray:none" />
  </g>
</svg>
