<?xml version="1.0" encoding="UTF-8" standalone="no"?>
<svg
   viewBox="0 0 512 512"
   version="1.1"
   id="svg1"
   sodipodi:docname="scissors.svg"
   inkscape:version="1.4.2 (ebf0e94, 2025-05-08)"
   xmlns:inkscape="http://www.inkscape.org/namespaces/inkscape"
   xmlns:sodipodi="http://sodipodi.sourceforge.net/DTD/sodipodi-0.dtd"
   xmlns="http://www.w3.org/2000/svg"
   xmlns:svg="http://www.w3.org/2000/svg">
  <defs
     id="defs1" />
  <sodipodi:namedview
     id="namedview1"
     pagecolor="#ffffff"
     bordercolor="#000000"
     borderopacity="0.25"
     inkscape:showpageshadow="2"
     inkscape:pageopacity="0.0"
     inkscape:pagecheckerboard="0"
     inkscape:deskcolor="#d1d1d1"
     showgrid="false"
     inkscape:zoom="1.578125"
     inkscape:cx="256"
     inkscape:cy="256"
     inkscape:window-width="1920"
     inkscape:window-height="1010"
     inkscape:window-x="-6"
     inkscape:window-y="-6"
     inkscape:window-maximized="1"
     inkscape:current-layer="svg1" />
  <!--! Font Awesome Free 6.4.0 by @fontawesome - https://fontawesome.com License - https://fontawesome.com/license/free (Icons: CC BY 4.0, Fonts: SIL OFL 1.1, Code: MIT License) Copyright 2023 Fonticons, Inc. -->
  <path
     d="m 259.7375,192 -39.5,-39.5 c 4.9,-12.6 7.5,-26.2 7.5,-40.5 0,-61.9 -50.1,-112 -112,-112 -61.9,0 -112,50.1 -112,112 0,61.9 50.1,112 112,112 14.3,0 27.9,-2.7 40.5,-7.5 l 39.5,39.5 -39.5,39.5 c -12.6,-4.9 -26.2,-7.5 -40.5,-7.5 -61.9,0 -112,50.1 -112,112 0,61.9 50.1,112 112,112 61.9,0 112,-50.1 112,-112 0,-14.3 -2.7,-27.9 -7.5,-40.5 l 282.7,-282.7 c 7.1,-7.1 7.1,-18.5 0,-25.6 -28.3,-28.3 -74.1,-28.3 -102.4,0 z m 22.6,150.6 118.2,118.2 c 28.3,28.3 74.1,28.3 102.4,0 7.1,-7.1 7.1,-18.5 0,-25.6 l -156.6,-156.6 z M 67.7375,112 a 48,48 0 1 1 96,0 48,48 0 1 1 -96,0 z m 48,240 a 48,48 0 1 1 0,96 48,48 0 1 1 0,-96 z"
     id="path1" />
</svg>
