<?xml version="1.0" encoding="UTF-8" standalone="no"?>
<svg
   viewBox="0 0 512 512"
   version="1.1"
   id="svg1"
   sodipodi:docname="align-center.svg"
   width="512"
   height="512"
   inkscape:version="1.3 (0e150ed6c4, 2023-07-21)"
   xmlns:inkscape="http://www.inkscape.org/namespaces/inkscape"
   xmlns:sodipodi="http://sodipodi.sourceforge.net/DTD/sodipodi-0.dtd"
   xmlns="http://www.w3.org/2000/svg"
   xmlns:svg="http://www.w3.org/2000/svg">
  <defs
     id="defs1" />
  <sodipodi:namedview
     id="namedview1"
     pagecolor="#ffffff"
     bordercolor="#000000"
     borderopacity="0.25"
     inkscape:showpageshadow="2"
     inkscape:pageopacity="0.0"
     inkscape:pagecheckerboard="0"
     inkscape:deskcolor="#d1d1d1"
     showgrid="false"
     inkscape:zoom="1.5878906"
     inkscape:cx="223.88192"
     inkscape:cy="256"
     inkscape:window-width="1920"
     inkscape:window-height="1009"
     inkscape:window-x="-8"
     inkscape:window-y="-8"
     inkscape:window-maximized="1"
     inkscape:current-layer="svg1" />
  <!--! Font Awesome Free 6.4.0 by @fontawesome - https://fontawesome.com License - https://fontawesome.com/license/free (Icons: CC BY 4.0, Fonts: SIL OFL 1.1, Code: MIT License) Copyright 2023 Fonticons, Inc. -->
  <path
     d="M 384,64 C 384,46.3 369.7,32 352,32 H 160 c -17.7,0 -32,14.3 -32,32 0,17.7 14.3,32 32,32 h 192 c 17.7,0 32,-14.3 32,-32 z m 96,128 c 0,-17.7 -14.3,-32 -32,-32 H 64 c -17.7,0 -32,14.3 -32,32 0,17.7 14.3,32 32,32 h 384 c 17.7,0 32,-14.3 32,-32 z M 32,448 c 0,17.7 14.3,32 32,32 h 384 c 17.7,0 32,-14.3 32,-32 0,-17.7 -14.3,-32 -32,-32 H 64 c -17.7,0 -32,14.3 -32,32 z M 384,320 c 0,-17.7 -14.3,-32 -32,-32 H 160 c -17.7,0 -32,14.3 -32,32 0,17.7 14.3,32 32,32 h 192 c 17.7,0 32,-14.3 32,-32 z"
     id="path1" />
</svg>
