<?xml version="1.0" encoding="UTF-8" standalone="no"?>
<svg
   viewBox="0 0 576 576"
   version="1.1"
   id="svg1"
   sodipodi:docname="alternet-sizinggrip-left.svg"
   width="576"
   height="576"
   inkscape:version="1.3.2 (091e20e, 2023-11-25, custom)"
   xmlns:inkscape="http://www.inkscape.org/namespaces/inkscape"
   xmlns:sodipodi="http://sodipodi.sourceforge.net/DTD/sodipodi-0.dtd"
   xmlns="http://www.w3.org/2000/svg"
   xmlns:svg="http://www.w3.org/2000/svg">
  <defs
     id="defs1" />
  <sodipodi:namedview
     id="namedview1"
     pagecolor="#ffffff"
     bordercolor="#000000"
     borderopacity="0.25"
     inkscape:showpageshadow="2"
     inkscape:pageopacity="0.0"
     inkscape:pagecheckerboard="0"
     inkscape:deskcolor="#d1d1d1"
     inkscape:zoom="1.1241893"
     inkscape:cx="287.31816"
     inkscape:cy="256.18461"
     inkscape:window-width="1920"
     inkscape:window-height="1010"
     inkscape:window-x="-6"
     inkscape:window-y="-6"
     inkscape:window-maximized="1"
     inkscape:current-layer="svg1"
     showgrid="false" />
  <!--! Font Awesome Free 6.4.0 by @fontawesome - https://fontawesome.com License - https://fontawesome.com/license/free (Icons: CC BY 4.0, Fonts: SIL OFL 1.1, Code: MIT License) Copyright 2023 Fonticons, Inc. -->
  <path
     id="path2"
     d="m 48,96 a 48,48 0 1 1 96,0 48,48 0 1 1 -96,0 z m 128,128 a 48,48 0 1 1 96,0 48,48 0 1 1 -96,0 z m 48,176 a 48,48 0 1 1 0,-96 48,48 0 1 1 0,96 z m -48,80 a 48,48 0 1 1 96,0 48,48 0 1 1 -96,0 z m -128,0 a 48,48 0 1 1 96,0 48,48 0 1 1 -96,0 z m 304,-80 a 48,48 0 1 1 0,-96 48,48 0 1 1 0,96 z m -48,80 a 48,48 0 1 1 96,0 48,48 0 1 1 -96,0 z m 176,48 a 48,48 0 1 1 0,-96 48,48 0 1 1 0,96 z M 48,352 a 48,48 0 1 1 96,0 48,48 0 1 1 -96,0 z m 48,-80 a 48,48 0 1 1 0,-96 48,48 0 1 1 0,96 z" />
</svg>
