<?xml version="1.0" encoding="UTF-8" standalone="no"?>
<svg
   viewBox="0 0 576 576"
   version="1.1"
   id="svg1"
   sodipodi:docname="alternet-keyboard.svg"
   width="576"
   height="576"
   inkscape:version="1.3.2 (091e20e, 2023-11-25, custom)"
   xmlns:inkscape="http://www.inkscape.org/namespaces/inkscape"
   xmlns:sodipodi="http://sodipodi.sourceforge.net/DTD/sodipodi-0.dtd"
   xmlns="http://www.w3.org/2000/svg"
   xmlns:svg="http://www.w3.org/2000/svg">
  <defs
     id="defs1" />
  <sodipodi:namedview
     id="namedview1"
     pagecolor="#ffffff"
     bordercolor="#000000"
     borderopacity="0.25"
     inkscape:showpageshadow="2"
     inkscape:pageopacity="0.0"
     inkscape:pagecheckerboard="0"
     inkscape:deskcolor="#d1d1d1"
     showgrid="false"
     inkscape:zoom="1.1241893"
     inkscape:cx="287.76292"
     inkscape:cy="256.18461"
     inkscape:window-width="1920"
     inkscape:window-height="1010"
     inkscape:window-x="-6"
     inkscape:window-y="-6"
     inkscape:window-maximized="1"
     inkscape:current-layer="svg1" />
  <!--! Font Awesome Free 6.4.0 by @fontawesome - https://fontawesome.com License - https://fontawesome.com/license/free (Icons: CC BY 4.0, Fonts: SIL OFL 1.1, Code: MIT License) Copyright 2023 Fonticons, Inc. -->
  <path
     d="m 64,144 c -8.8,0 -16,7.2 -16,16 v 256 c 0,8.8 7.2,16 16,16 h 448 c 8.8,0 16,-7.2 16,-16 V 160 c 0,-8.8 -7.2,-16 -16,-16 z M 0,160 C 0,124.7 28.7,96 64,96 h 448 c 35.3,0 64,28.7 64,64 v 256 c 0,35.3 -28.7,64 -64,64 H 64 C 28.7,480 0,451.3 0,416 Z m 176,192 h 224 c 8.8,0 16,7.2 16,16 v 16 c 0,8.8 -7.2,16 -16,16 H 176 c -8.8,0 -16,-7.2 -16,-16 v -16 c 0,-8.8 7.2,-16 16,-16 z m -72,-72 c 0,-8.8 7.2,-16 16,-16 h 16 c 8.8,0 16,7.2 16,16 v 16 c 0,8.8 -7.2,16 -16,16 h -16 c -8.8,0 -16,-7.2 -16,-16 z m 16,-96 h 16 c 8.8,0 16,7.2 16,16 v 16 c 0,8.8 -7.2,16 -16,16 h -16 c -8.8,0 -16,-7.2 -16,-16 v -16 c 0,-8.8 7.2,-16 16,-16 z m 64,96 c 0,-8.8 7.2,-16 16,-16 h 16 c 8.8,0 16,7.2 16,16 v 16 c 0,8.8 -7.2,16 -16,16 h -16 c -8.8,0 -16,-7.2 -16,-16 z m 16,-96 h 16 c 8.8,0 16,7.2 16,16 v 16 c 0,8.8 -7.2,16 -16,16 h -16 c -8.8,0 -16,-7.2 -16,-16 v -16 c 0,-8.8 7.2,-16 16,-16 z m 64,96 c 0,-8.8 7.2,-16 16,-16 h 16 c 8.8,0 16,7.2 16,16 v 16 c 0,8.8 -7.2,16 -16,16 h -16 c -8.8,0 -16,-7.2 -16,-16 z m 16,-96 h 16 c 8.8,0 16,7.2 16,16 v 16 c 0,8.8 -7.2,16 -16,16 h -16 c -8.8,0 -16,-7.2 -16,-16 v -16 c 0,-8.8 7.2,-16 16,-16 z m 64,96 c 0,-8.8 7.2,-16 16,-16 h 16 c 8.8,0 16,7.2 16,16 v 16 c 0,8.8 -7.2,16 -16,16 h -16 c -8.8,0 -16,-7.2 -16,-16 z m 16,-96 h 16 c 8.8,0 16,7.2 16,16 v 16 c 0,8.8 -7.2,16 -16,16 h -16 c -8.8,0 -16,-7.2 -16,-16 v -16 c 0,-8.8 7.2,-16 16,-16 z m 64,96 c 0,-8.8 7.2,-16 16,-16 h 16 c 8.8,0 16,7.2 16,16 v 16 c 0,8.8 -7.2,16 -16,16 h -16 c -8.8,0 -16,-7.2 -16,-16 z m 16,-96 h 16 c 8.8,0 16,7.2 16,16 v 16 c 0,8.8 -7.2,16 -16,16 h -16 c -8.8,0 -16,-7.2 -16,-16 v -16 c 0,-8.8 7.2,-16 16,-16 z"
     id="path1" />
</svg>
