<?xml version="1.0" encoding="UTF-8" standalone="no"?>
<svg
   viewBox="0 0 512 512"
   version="1.1"
   id="svg1"
   sodipodi:docname="alternet-floppy-disk.svg"
   width="512"
   height="512"
   inkscape:version="1.3 (0e150ed6c4, 2023-07-21)"
   xmlns:inkscape="http://www.inkscape.org/namespaces/inkscape"
   xmlns:sodipodi="http://sodipodi.sourceforge.net/DTD/sodipodi-0.dtd"
   xmlns="http://www.w3.org/2000/svg"
   xmlns:svg="http://www.w3.org/2000/svg">
  <defs
     id="defs1" />
  <sodipodi:namedview
     id="namedview1"
     pagecolor="#ffffff"
     bordercolor="#000000"
     borderopacity="0.25"
     inkscape:showpageshadow="2"
     inkscape:pageopacity="0.0"
     inkscape:pagecheckerboard="0"
     inkscape:deskcolor="#d1d1d1"
     showgrid="false"
     inkscape:zoom="1.5878906"
     inkscape:cx="223.88192"
     inkscape:cy="256"
     inkscape:window-width="1920"
     inkscape:window-height="1009"
     inkscape:window-x="-8"
     inkscape:window-y="-8"
     inkscape:window-maximized="1"
     inkscape:current-layer="svg1" />
  <!--! Font Awesome Free 6.4.0 by @fontawesome - https://fontawesome.com License - https://fontawesome.com/license/free (Icons: CC BY 4.0, Fonts: SIL OFL 1.1, Code: MIT License) Copyright 2023 Fonticons, Inc. -->
  <path
     d="m 80.05,96 v 320 c 0,8.8 7.2,16 16,16 h 320 c 8.8,0 16,-7.2 16,-16 V 170.5 c 0,-4.2 -1.7,-8.3 -4.7,-11.3 l 33.9,-33.9 c 12,12 18.7,28.3 18.7,45.3 V 416 c 0,35.3 -28.7,64 -64,64 H 96.05 c -35.3,0 -64,-28.7 -64,-64 V 96 c 0,-35.3 28.7,-64 64,-64 h 245.5 c 17,0 33.3,6.7 45.3,18.7 l 74.5,74.5 -33.9,33.9 -74.6,-74.4 c -0.3,-0.3 -0.5,-0.5 -0.8,-0.8 V 184 c 0,13.3 -10.7,24 -24,24 h -192 c -13.3,0 -24,-10.7 -24,-24 V 80 h -16 c -8.8,0 -16,7.2 -16,16 z m 80,-16 v 80 h 144 V 80 Z m 32,240 a 64,64 0 1 1 128,0 64,64 0 1 1 -128,0 z"
     id="path1" />
</svg>
