<?xml version="1.0" encoding="UTF-8" standalone="no"?>
<svg
   viewBox="0 0 512 512"
   version="1.1"
   id="svg1"
   sodipodi:docname="bold.svg"
   width="512"
   height="512"
   inkscape:version="1.3 (0e150ed6c4, 2023-07-21)"
   xmlns:inkscape="http://www.inkscape.org/namespaces/inkscape"
   xmlns:sodipodi="http://sodipodi.sourceforge.net/DTD/sodipodi-0.dtd"
   xmlns="http://www.w3.org/2000/svg"
   xmlns:svg="http://www.w3.org/2000/svg">
  <defs
     id="defs1" />
  <sodipodi:namedview
     id="namedview1"
     pagecolor="#ffffff"
     bordercolor="#000000"
     borderopacity="0.25"
     inkscape:showpageshadow="2"
     inkscape:pageopacity="0.0"
     inkscape:pagecheckerboard="0"
     inkscape:deskcolor="#d1d1d1"
     showgrid="false"
     inkscape:zoom="1.5878906"
     inkscape:cx="191.76384"
     inkscape:cy="256"
     inkscape:window-width="1920"
     inkscape:window-height="1009"
     inkscape:window-x="-8"
     inkscape:window-y="-8"
     inkscape:window-maximized="1"
     inkscape:current-layer="svg1" />
  <!--! Font Awesome Free 6.4.0 by @fontawesome - https://fontawesome.com License - https://fontawesome.com/license/free (Icons: CC BY 4.0, Fonts: SIL OFL 1.1, Code: MIT License) Copyright 2023 Fonticons, Inc. -->
  <path
     d="M 64,64 C 64,46.3 78.3,32 96,32 h 48 16 128 c 70.7,0 128,57.3 128,128 0,31.3 -11.3,60.1 -30,82.3 37.1,22.4 62,63.1 62,109.7 0,70.7 -57.3,128 -128,128 H 160 144 96 c -17.7,0 -32,-14.3 -32,-32 0,-17.7 14.3,-32 32,-32 h 16 V 256 96 H 96 C 78.3,96 64,81.7 64,64 Z m 224,160 c 35.3,0 64,-28.7 64,-64 0,-35.3 -28.7,-64 -64,-64 H 176 v 128 z m -112,64 v 128 h 144 c 35.3,0 64,-28.7 64,-64 0,-35.3 -28.7,-64 -64,-64 h -32 z"
     id="path1" />
</svg>
