<?xml version="1.0" encoding="UTF-8" standalone="no"?>
<svg
   viewBox="0 0 512 512"
   version="1.1"
   id="svg1"
   sodipodi:docname="right-from-bracket.svg"
   inkscape:version="1.4.2 (ebf0e94, 2025-05-08)"
   xmlns:inkscape="http://www.inkscape.org/namespaces/inkscape"
   xmlns:sodipodi="http://sodipodi.sourceforge.net/DTD/sodipodi-0.dtd"
   xmlns="http://www.w3.org/2000/svg"
   xmlns:svg="http://www.w3.org/2000/svg">
  <defs
     id="defs1" />
  <sodipodi:namedview
     id="namedview1"
     pagecolor="#ffffff"
     bordercolor="#000000"
     borderopacity="0.25"
     inkscape:showpageshadow="2"
     inkscape:pageopacity="0.0"
     inkscape:pagecheckerboard="0"
     inkscape:deskcolor="#d1d1d1"
     showgrid="false"
     inkscape:zoom="1.578125"
     inkscape:cx="256"
     inkscape:cy="256"
     inkscape:window-width="1920"
     inkscape:window-height="1010"
     inkscape:window-x="-6"
     inkscape:window-y="-6"
     inkscape:window-maximized="1"
     inkscape:current-layer="svg1" />
  <!--! Font Awesome Free 6.4.0 by @fontawesome - https://fontawesome.com License - https://fontawesome.com/license/free (Icons: CC BY 4.0, Fonts: SIL OFL 1.1, Code: MIT License) Copyright 2023 Fonticons, Inc. -->
  <path
     d="M 358.37695,129.93945 461.50977,233.07227 C 467.55664,239.11914 471,247.43359 471,256 c 0,8.56641 -3.44336,16.88086 -9.49023,22.92773 L 358.37695,382.06055 c -5.375,5.375 -12.59765,8.31445 -20.15625,8.31445 -15.70508,0 -28.4707,-12.76563 -28.4707,-28.4707 V 309.75 h -107.5 c -14.86523,0 -26.875,-12.00977 -26.875,-26.875 v -53.75 c 0,-14.86523 12.00977,-26.875 26.875,-26.875 h 107.5 v -52.1543 c 0,-15.70508 12.76562,-28.4707 28.4707,-28.4707 7.5586,0 14.78125,3.02344 20.15625,8.31445 z M 175.375,121.625 h -53.75 c -14.86523,0 -26.875,12.00977 -26.875,26.875 v 215 c 0,14.86523 12.00977,26.875 26.875,26.875 h 53.75 c 14.86523,0 26.875,12.00977 26.875,26.875 0,14.86523 -12.00977,26.875 -26.875,26.875 h -53.75 C 77.113281,444.125 41,408.01172 41,363.5 v -215 c 0,-44.51172 36.113281,-80.625 80.625,-80.625 h 53.75 c 14.86523,0 26.875,12.009766 26.875,26.875 0,14.86523 -12.00977,26.875 -26.875,26.875 z"
     id="path1"
     style="stroke-width:0.839844" />
</svg>
