<?xml version="1.0" encoding="UTF-8" standalone="no"?>
<svg
   viewBox="0 0 512 512"
   version="1.1"
   id="svg1"
   sodipodi:docname="alternet-square-minus.svg"
   width="512"
   height="512"
   inkscape:version="1.3 (0e150ed6c4, 2023-07-21)"
   xmlns:inkscape="http://www.inkscape.org/namespaces/inkscape"
   xmlns:sodipodi="http://sodipodi.sourceforge.net/DTD/sodipodi-0.dtd"
   xmlns="http://www.w3.org/2000/svg"
   xmlns:svg="http://www.w3.org/2000/svg">
  <defs
     id="defs1" />
  <sodipodi:namedview
     id="namedview1"
     pagecolor="#ffffff"
     bordercolor="#000000"
     borderopacity="0.25"
     inkscape:showpageshadow="2"
     inkscape:pageopacity="0.0"
     inkscape:pagecheckerboard="0"
     inkscape:deskcolor="#d1d1d1"
     showgrid="false"
     inkscape:zoom="1.5898438"
     inkscape:cx="224.23587"
     inkscape:cy="256"
     inkscape:window-width="1920"
     inkscape:window-height="1010"
     inkscape:window-x="-6"
     inkscape:window-y="-6"
     inkscape:window-maximized="1"
     inkscape:current-layer="svg1" />
  <!--! Font Awesome Free 6.4.0 by @fontawesome - https://fontawesome.com License - https://fontawesome.com/license/free (Icons: CC BY 4.0, Fonts: SIL OFL 1.1, Code: MIT License) Copyright 2023 Fonticons, Inc. -->
  <path
     d="m 96,80 c -8.8,0 -16,7.2 -16,16 v 320 c 0,8.8 7.2,16 16,16 h 320 c 8.8,0 16,-7.2 16,-16 V 96 c 0,-8.8 -7.2,-16 -16,-16 z M 32,96 C 32,60.7 60.7,32 96,32 h 320 c 35.3,0 64,28.7 64,64 v 320 c 0,35.3 -28.7,64 -64,64 H 96 C 60.7,480 32,451.3 32,416 Z m 152,136 h 144 c 13.3,0 24,10.7 24,24 0,13.3 -10.7,24 -24,24 H 184 c -13.3,0 -24,-10.7 -24,-24 0,-13.3 10.7,-24 24,-24 z"
     id="path1" />
</svg>
