<?xml version="1.0" encoding="UTF-8" standalone="no"?>
<svg
   viewBox="0 0 512 512"
   version="1.1"
   id="svg19"
   sodipodi:docname="alternet-zoomin.svg"
   inkscape:version="1.2.2 (732a01da63, 2022-12-09)"
   width="512"
   height="512"
   xmlns:inkscape="http://www.inkscape.org/namespaces/inkscape"
   xmlns:sodipodi="http://sodipodi.sourceforge.net/DTD/sodipodi-0.dtd"
   xmlns="http://www.w3.org/2000/svg"
   xmlns:svg="http://www.w3.org/2000/svg">
  <defs
     id="defs23" />
  <sodipodi:namedview
     id="namedview21"
     pagecolor="#ffffff"
     bordercolor="#000000"
     borderopacity="0.25"
     inkscape:showpageshadow="2"
     inkscape:pageopacity="0.0"
     inkscape:pagecheckerboard="0"
     inkscape:deskcolor="#d1d1d1"
     showgrid="false"
     inkscape:zoom="1.5742188"
     inkscape:cx="191.84118"
     inkscape:cy="257.27046"
     inkscape:window-width="1920"
     inkscape:window-height="1009"
     inkscape:window-x="-8"
     inkscape:window-y="-8"
     inkscape:window-maximized="1"
     inkscape:current-layer="svg19" />
  <!--! Font Awesome Free 6.4.0 by @fontawesome - https://fontawesome.com License - https://fontawesome.com/license/free (Icons: CC BY 4.0, Fonts: SIL OFL 1.1, Code: MIT License) Copyright 2023 Fonticons, Inc. -->
  <path
     d="M 205.75733,143.23863 A 117.77152,108.42078 23.592351 1 1 383.35596,295.23241 117.77152,108.42078 23.592351 1 1 205.75733,143.23863 Z m -1.96096,220.56172 c 74.9979,44.92702 172.40402,36.10714 230.30206,-25.14115 C 499.30918,269.67502 489.69884,160.28036 412.63373,94.325928 335.56862,28.371487 220.22561,30.827679 155.01486,99.811842 97.116822,161.06013 98.18279,254.15514 153.0539,320.37356 l -87.819837,92.90153 c -11.8748,12.56192 -10.130792,32.414 3.90267,44.42422 14.033463,12.01022 34.964997,11.56449 46.839797,-0.99745 z"
     id="path17"
     style="stroke-width:1.00892" />
  <path
     style="stroke-width:0.477699"
     d="m 308.04443,152.72325 c 0.67463,-12.0759 -16.30203,-19.61533 -25.74184,-11.46672 -8.41095,6.52781 -5.01179,17.4199 -5.71888,26.32156 0,12.37902 0,24.75802 0,37.13704 -19.40405,0.19097 -38.8595,-0.38832 -58.23034,0.30129 -12.57267,1.81057 -17.03995,18.86647 -6.83746,26.02027 7.57075,5.4812 17.55738,2.70568 26.37106,3.3881 12.89892,0 25.79783,0 38.69674,0 0.2022,18.32398 -0.41124,36.69656 0.31902,54.98923 1.9173,11.87287 19.9785,16.09151 27.55393,6.45688 5.80426,-7.14937 2.86514,-16.58011 3.58777,-24.90325 0,-12.18096 0,-24.36192 0,-36.54286 19.40404,-0.19097 38.85947,0.38832 58.23032,-0.30129 12.57266,-1.81057 17.03996,-18.86647 6.83744,-26.02027 -7.57074,-5.4812 -17.55736,-2.7057 -26.37104,-3.3881 -12.89891,0 -25.79782,0 -38.69672,0 0,-17.33063 0,-34.66125 0,-51.99188 z"
     id="path26" />
</svg>
