<?xml version="1.0" encoding="UTF-8" standalone="no"?>
<svg
   viewBox="0 0 576 576"
   version="1.1"
   id="svg1"
   sodipodi:docname="address-card.svg"
   width="576"
   height="576"
   inkscape:version="1.4.4 (dcaf3e7, 2026-05-05)"
   xmlns:inkscape="http://www.inkscape.org/namespaces/inkscape"
   xmlns:sodipodi="http://sodipodi.sourceforge.net/DTD/sodipodi-0.dtd"
   xmlns="http://www.w3.org/2000/svg"
   xmlns:svg="http://www.w3.org/2000/svg">
  <defs
     id="defs1" />
  <sodipodi:namedview
     id="namedview1"
     pagecolor="#ffffff"
     bordercolor="#000000"
     borderopacity="0.25"
     inkscape:showpageshadow="2"
     inkscape:pageopacity="0.0"
     inkscape:pagecheckerboard="0"
     inkscape:deskcolor="#d1d1d1"
     showgrid="false"
     inkscape:zoom="1.578125"
     inkscape:cx="287.68317"
     inkscape:cy="306.69307"
     inkscape:window-width="1920"
     inkscape:window-height="1010"
     inkscape:window-x="-6"
     inkscape:window-y="-6"
     inkscape:window-maximized="1"
     inkscape:current-layer="svg1" />
  <!--! Font Awesome Free 6.4.0 by @fontawesome - https://fontawesome.com License - https://fontawesome.com/license/free (Icons: CC BY 4.0, Fonts: SIL OFL 1.1, Code: MIT License) Copyright 2023 Fonticons, Inc. -->
  <path
     d="m 512,112 c 8.8,0 16,7.2 16,16 v 320 c 0,8.8 -7.2,16 -16,16 H 64 c -8.8,0 -16,-7.2 -16,-16 V 128 c 0,-8.8 7.2,-16 16,-16 z M 64,64 C 28.7,64 0,92.7 0,128 v 320 c 0,35.3 28.7,64 64,64 h 448 c 35.3,0 64,-28.7 64,-64 V 128 C 576,92.7 547.3,64 512,64 Z m 144,224 a 64,64 0 1 0 0,-128 64,64 0 1 0 0,128 z m -32,32 c -44.2,0 -80,35.8 -80,80 0,8.8 7.2,16 16,16 h 192 c 8.8,0 16,-7.2 16,-16 0,-44.2 -35.8,-80 -80,-80 z M 376,176 c -13.3,0 -24,10.7 -24,24 0,13.3 10.7,24 24,24 h 80 c 13.3,0 24,-10.7 24,-24 0,-13.3 -10.7,-24 -24,-24 z m 0,96 c -13.3,0 -24,10.7 -24,24 0,13.3 10.7,24 24,24 h 80 c 13.3,0 24,-10.7 24,-24 0,-13.3 -10.7,-24 -24,-24 z"
     id="path1" />
</svg>
