<?xml version="1.0" encoding="UTF-8" standalone="no"?>
<svg
   viewBox="0 0 512 512"
   version="1.1"
   id="svg1"
   sodipodi:docname="underline.svg"
   width="512"
   height="512"
   inkscape:version="1.3 (0e150ed6c4, 2023-07-21)"
   xmlns:inkscape="http://www.inkscape.org/namespaces/inkscape"
   xmlns:sodipodi="http://sodipodi.sourceforge.net/DTD/sodipodi-0.dtd"
   xmlns="http://www.w3.org/2000/svg"
   xmlns:svg="http://www.w3.org/2000/svg">
  <defs
     id="defs1" />
  <sodipodi:namedview
     id="namedview1"
     pagecolor="#ffffff"
     bordercolor="#000000"
     borderopacity="0.25"
     inkscape:showpageshadow="2"
     inkscape:pageopacity="0.0"
     inkscape:pagecheckerboard="0"
     inkscape:deskcolor="#d1d1d1"
     showgrid="false"
     inkscape:zoom="1.5878906"
     inkscape:cx="223.88192"
     inkscape:cy="256"
     inkscape:window-width="1920"
     inkscape:window-height="1009"
     inkscape:window-x="-8"
     inkscape:window-y="-8"
     inkscape:window-maximized="1"
     inkscape:current-layer="svg1" />
  <!--! Font Awesome Free 6.4.0 by @fontawesome - https://fontawesome.com License - https://fontawesome.com/license/free (Icons: CC BY 4.0, Fonts: SIL OFL 1.1, Code: MIT License) Copyright 2023 Fonticons, Inc. -->
  <path
     d="M 48,64 C 48,46.3 62.3,32 80,32 h 96 c 17.7,0 32,14.3 32,32 0,17.7 -14.3,32 -32,32 h -16 v 128 c 0,53 43,96 96,96 53,0 96,-43 96,-96 V 96 h -16 c -17.7,0 -32,-14.3 -32,-32 0,-17.7 14.3,-32 32,-32 h 96 c 17.7,0 32,14.3 32,32 0,17.7 -14.3,32 -32,32 H 416 V 224 C 416,312.4 344.4,384 256,384 167.6,384 96,312.4 96,224 V 96 H 80 C 62.3,96 48,81.7 48,64 Z M 32,448 c 0,-17.7 14.3,-32 32,-32 h 384 c 17.7,0 32,14.3 32,32 0,17.7 -14.3,32 -32,32 H 64 C 46.3,480 32,465.7 32,448 Z"
     id="path1" />
</svg>
