<?xml version="1.0" encoding="UTF-8" standalone="no"?>
<svg
   viewBox="0 0 576 576"
   version="1.1"
   id="svg1"
   sodipodi:docname="alternet-paintbrush.svg"
   width="576"
   height="576"
   inkscape:version="1.3.2 (091e20e, 2023-11-25, custom)"
   xmlns:inkscape="http://www.inkscape.org/namespaces/inkscape"
   xmlns:sodipodi="http://sodipodi.sourceforge.net/DTD/sodipodi-0.dtd"
   xmlns="http://www.w3.org/2000/svg"
   xmlns:svg="http://www.w3.org/2000/svg">
  <defs
     id="defs1" />
  <sodipodi:namedview
     id="namedview1"
     pagecolor="#ffffff"
     bordercolor="#000000"
     borderopacity="0.25"
     inkscape:showpageshadow="2"
     inkscape:pageopacity="0.0"
     inkscape:pagecheckerboard="0"
     inkscape:deskcolor="#d1d1d1"
     showgrid="false"
     inkscape:zoom="1.1241893"
     inkscape:cx="287.76292"
     inkscape:cy="305.99829"
     inkscape:window-width="1920"
     inkscape:window-height="1010"
     inkscape:window-x="-6"
     inkscape:window-y="-6"
     inkscape:window-maximized="1"
     inkscape:current-layer="svg1" />
  <!--! Font Awesome Free 6.4.0 by @fontawesome - https://fontawesome.com License - https://fontawesome.com/license/free (Icons: CC BY 4.0, Fonts: SIL OFL 1.1, Code: MIT License) Copyright 2023 Fonticons, Inc. -->
  <path
     d="m 323.36604,399.11585 c 27.3,-3.9 51.9,-19.4 67.2,-42.9 l 161.7,-250.1 c 12.6,-19.499996 9.4,-45.299996 -7.6,-61.199996 -17,-15.9 -42.9,-17.3 -61.5,-3.3 l -236.7,177.599996 c -24,18 -38.2,46.1 -38.4,76.1 z m -19.6,25.4 -116,-104.4 c -59.8,2.2 -107.700001,51.5 -107.700001,111.9 0,3.9 0.2,7.8 0.6,11.6 1.8,17.5 -10.2,36.4 -27.8,36.4 h -4.8 c -17.7,0 -32,14.3 -32,32 0,17.7 14.3,32 32,32 H 192.06604 c 61.9,0 112,-50.1 112,-112 0,-2.5 -0.1,-5 -0.2,-7.5 z"
     id="path1" />
</svg>
