<?xml version="1.0" encoding="UTF-8" standalone="no"?>
<svg
   viewBox="0 0 512 512"
   version="1.1"
   id="svg1"
   sodipodi:docname="circle-exclamation2.svg"
   inkscape:version="1.3 (0e150ed6c4, 2023-07-21)"
   xmlns:inkscape="http://www.inkscape.org/namespaces/inkscape"
   xmlns:sodipodi="http://sodipodi.sourceforge.net/DTD/sodipodi-0.dtd"
   xmlns="http://www.w3.org/2000/svg"
   xmlns:svg="http://www.w3.org/2000/svg">
  <defs
     id="defs1" />
  <sodipodi:namedview
     id="namedview1"
     pagecolor="#ffffff"
     bordercolor="#000000"
     borderopacity="0.25"
     inkscape:showpageshadow="2"
     inkscape:pageopacity="0.0"
     inkscape:pagecheckerboard="0"
     inkscape:deskcolor="#d1d1d1"
     showgrid="false"
     inkscape:zoom="1.5878906"
     inkscape:cx="256"
     inkscape:cy="255.37024"
     inkscape:window-width="1920"
     inkscape:window-height="1009"
     inkscape:window-x="-8"
     inkscape:window-y="-8"
     inkscape:window-maximized="1"
     inkscape:current-layer="svg1" />
  <!--! Font Awesome Free 6.4.0 by @fontawesome - https://fontawesome.com License - https://fontawesome.com/license/free (Icons: CC BY 4.0, Fonts: SIL OFL 1.1, Code: MIT License) Copyright 2023 Fonticons, Inc. -->
  <path
     d="M 256,0 A 256,256 0 0 0 217.8457,2.859375 256,256 0 0 0 180.54297,11.373047 256,256 0 0 0 144.92578,25.351562 256,256 0 0 0 111.79102,44.482422 256,256 0 0 0 81.875,68.337891 256,256 0 0 0 55.851562,96.386719 256,256 0 0 0 34.296875,128 a 256,256 0 0 0 -16.599609,34.47266 256,256 0 0 0 -11.2792973,36.5625 256,256 0 0 0 -5.70117183,37.83398 256,256 0 0 0 0,38.26172 256,256 0 0 0 5.70117183,37.83398 256,256 0 0 0 11.2792973,36.5625 A 256,256 0 0 0 34.296875,384 256,256 0 0 0 55.851562,415.61328 256,256 0 0 0 81.875,443.66211 a 256,256 0 0 0 29.91602,23.85547 256,256 0 0 0 33.13476,19.13086 256,256 0 0 0 35.61719,13.97851 256,256 0 0 0 37.30273,8.51367 A 256,256 0 0 0 256,512 a 256,256 0 0 0 38.1543,-2.85938 256,256 0 0 0 37.30273,-8.51367 256,256 0 0 0 35.61719,-13.97851 256,256 0 0 0 33.13476,-19.13086 A 256,256 0 0 0 430.125,443.66211 256,256 0 0 0 456.14844,415.61328 256,256 0 0 0 477.70312,384 a 256,256 0 0 0 16.59961,-34.47266 256,256 0 0 0 11.2793,-36.5625 256,256 0 0 0 5.70117,-37.83398 256,256 0 0 0 0,-38.26172 256,256 0 0 0 -5.70117,-37.83398 256,256 0 0 0 -11.2793,-36.5625 A 256,256 0 0 0 477.70312,128 256,256 0 0 0 456.14844,96.386719 256,256 0 0 0 430.125,68.337891 256,256 0 0 0 400.20898,44.482422 256,256 0 0 0 367.07422,25.351562 256,256 0 0 0 331.45703,11.373047 256,256 0 0 0 294.1543,2.859375 256,256 0 0 0 256,0 Z m 0,48 a 208,208 0 0 1 34.23633,2.835937 208,208 0 0 1 33.30078,8.433594 208,208 0 0 1 31.45898,13.800781 208,208 0 0 1 28.75977,18.789063 208,208 0 0 1 25.27539,23.265625 208,208 0 0 1 21.09961,27.10937 208,208 0 0 1 16.34961,30.2129 208,208 0 0 1 11.1543,32.49218 208,208 0 0 1 5.65429,33.88477 208,208 0 0 1 0,34.35156 208,208 0 0 1 -5.65429,33.88477 208,208 0 0 1 -11.1543,32.49218 208,208 0 0 1 -16.34961,30.21289 208,208 0 0 1 -21.09961,27.10938 208,208 0 0 1 -25.27539,23.26562 208,208 0 0 1 -28.75977,18.78907 208,208 0 0 1 -31.45898,13.80078 208,208 0 0 1 -33.30078,8.43359 A 208,208 0 0 1 256,464 208,208 0 0 1 221.76367,461.16406 208,208 0 0 1 188.46289,452.73047 208,208 0 0 1 157.00391,438.92969 208,208 0 0 1 128.24414,420.14062 208,208 0 0 1 102.96875,396.875 208,208 0 0 1 81.869141,369.76562 208,208 0 0 1 65.519531,339.55273 208,208 0 0 1 54.365234,307.06055 a 208,208 0 0 1 -5.654297,-33.88477 208,208 0 0 1 0,-34.35156 208,208 0 0 1 5.654297,-33.88477 208,208 0 0 1 11.154297,-32.49218 208,208 0 0 1 16.34961,-30.2129 A 208,208 0 0 1 102.96875,115.125 208,208 0 0 1 128.24414,91.859375 208,208 0 0 1 157.00391,73.070312 208,208 0 0 1 188.46289,59.269531 208,208 0 0 1 221.76367,50.835937 208,208 0 0 1 256,48 Z"
     style=""
     id="path4" />
  <g
     id="g1"
     transform="translate(-67.86838,4.58056)">
    <path
       d="m 323.86838,315.41944 a 32,32 0 0 0 -12.24609,2.43555 32,32 0 0 0 -10.38086,6.9375 32,32 0 0 0 -6.9375,10.38086 32,32 0 0 0 -2.43555,12.24609 32,32 0 0 0 2.43555,12.24609 32,32 0 0 0 6.9375,10.38086 32,32 0 0 0 10.38086,6.9375 32,32 0 0 0 12.24609,2.43555 32,32 0 0 0 12.24609,-2.43555 32,32 0 0 0 10.38086,-6.9375 32,32 0 0 0 6.9375,-10.38086 32,32 0 0 0 2.43555,-12.24609 32,32 0 0 0 -2.43555,-12.24609 32,32 0 0 0 -6.9375,-10.38086 32,32 0 0 0 -10.38086,-6.9375 32,32 0 0 0 -12.24609,-2.43555 z"
       id="path5" />
    <path
       d="m 323.86838,123.41944 c -1.6625,0 -3.28418,0.16777 -4.84961,0.48633 -1.56543,0.31855 -3.075,0.78711 -4.51172,1.39258 -1.43672,0.60546 -2.80176,1.34629 -4.07812,2.20703 -1.27637,0.86074 -2.46446,1.8414 -3.54883,2.92578 -1.08438,1.08437 -2.06504,2.27246 -2.92578,3.54883 -0.86074,1.27636 -1.60157,2.6414 -2.20703,4.07812 -0.60547,1.43672 -1.07403,2.94629 -1.39258,4.51172 -0.31856,1.56543 -0.48633,3.18711 -0.48633,4.84961 v 112 c 0,1.6625 0.16777,3.28418 0.48633,4.84961 0.31855,1.56543 0.78711,3.075 1.39258,4.51172 0.60546,1.43672 1.34629,2.7998 2.20703,4.07617 0.86074,1.27637 1.8414,2.46641 2.92578,3.55078 1.08437,1.08438 2.27246,2.06309 3.54883,2.92383 1.27636,0.86074 2.6414,1.60352 4.07812,2.20898 1.43672,0.60547 2.94629,1.07403 4.51172,1.39258 1.56543,0.31856 3.18711,0.48633 4.84961,0.48633 1.6625,0 3.28418,-0.16777 4.84961,-0.48633 1.56543,-0.31855 3.075,-0.78711 4.51172,-1.39258 1.43672,-0.60546 2.7998,-1.34824 4.07617,-2.20898 1.27637,-0.86074 2.46641,-1.83945 3.55078,-2.92383 1.08438,-1.08437 2.06309,-2.27441 2.92383,-3.55078 0.86074,-1.27637 1.60352,-2.63945 2.20898,-4.07617 0.60547,-1.43672 1.07403,-2.94629 1.39258,-4.51172 0.31856,-1.56543 0.48633,-3.18711 0.48633,-4.84961 v -112 c 0,-1.6625 -0.16777,-3.28418 -0.48633,-4.84961 -0.31855,-1.56543 -0.78711,-3.075 -1.39258,-4.51172 -0.60546,-1.43672 -1.34824,-2.80176 -2.20898,-4.07812 -0.86074,-1.27637 -1.83945,-2.46446 -2.92383,-3.54883 -1.08437,-1.08438 -2.27441,-2.06504 -3.55078,-2.92578 -1.27637,-0.86074 -2.63945,-1.60157 -4.07617,-2.20703 -1.43672,-0.60547 -2.94629,-1.07403 -4.51172,-1.39258 -1.56543,-0.31856 -3.18711,-0.48633 -4.84961,-0.48633 z"
       style="fill:#000000;fill-opacity:1"
       id="path4-7" />
  </g>
</svg>
