<?xml version="1.0" encoding="UTF-8" standalone="no"?>
<svg
   viewBox="0 0 384 512"
   version="1.1"
   id="svg19"
   sodipodi:docname="alternet-zoomin.svg"
   inkscape:version="1.2.2 (732a01da63, 2022-12-09)"
   xmlns:inkscape="http://www.inkscape.org/namespaces/inkscape"
   xmlns:sodipodi="http://sodipodi.sourceforge.net/DTD/sodipodi-0.dtd"
   xmlns="http://www.w3.org/2000/svg"
   xmlns:svg="http://www.w3.org/2000/svg">
  <defs
     id="defs23" />
  <sodipodi:namedview
     id="namedview21"
     pagecolor="#ffffff"
     bordercolor="#000000"
     borderopacity="0.25"
     inkscape:showpageshadow="2"
     inkscape:pageopacity="0.0"
     inkscape:pagecheckerboard="0"
     inkscape:deskcolor="#d1d1d1"
     showgrid="false"
     inkscape:zoom="1.5742188"
     inkscape:cx="191.84119"
     inkscape:cy="256"
     inkscape:window-width="1920"
     inkscape:window-height="1009"
     inkscape:window-x="-8"
     inkscape:window-y="-8"
     inkscape:window-maximized="1"
     inkscape:current-layer="svg19" />
  <!--! Font Awesome Free 6.4.0 by @fontawesome - https://fontawesome.com License - https://fontawesome.com/license/free (Icons: CC BY 4.0, Fonts: SIL OFL 1.1, Code: MIT License) Copyright 2023 Fonticons, Inc. -->
  <path
     d="M 145.84792,158.85805 A 93.202802,87.682387 41.969861 1 1 284.43987,283.51486 93.202802,87.682387 41.969861 1 1 145.84792,158.85805 Z m -1.53026,180.8924 c 58.52581,36.84664 134.53825,29.61306 179.71991,-20.61937 50.88826,-56.57696 43.38868,-146.29636 -16.75032,-200.3885 -60.139,-54.09215 -150.14877,-52.077718 -201.03703,4.49924 -45.181658,50.23243 -44.349813,126.58375 -1.53026,180.8924 l -68.531622,76.19265 c -9.266691,10.30259 -7.905727,26.58416 3.045511,36.43427 10.951238,9.85011 27.285495,9.48455 36.552187,-0.81805 z"
     id="path17"
     style="stroke-width:0.807147" />
  <path
     style="stroke-width:0.364887"
     d="m 224.78586,165.47324 c 0.47301,-10.04916 -11.42983,-16.32322 -18.04835,-9.54222 -5.89717,5.43223 -3.51392,14.49626 -4.00968,21.90392 0,10.3014 0,20.60279 0,30.9042 -13.60475,0.15892 -27.24553,-0.32315 -40.827,0.25072 -8.81507,1.5067 -11.94721,15.70005 -4.79394,21.6532 5.30807,4.56127 12.30999,2.25158 18.48952,2.81946 9.04381,0 18.08761,0 27.13142,0 0.14177,15.24861 -0.28833,30.53765 0.22368,45.76019 1.34427,9.88021 14.0075,13.39082 19.31886,5.3732 4.06954,-5.94946 2.00884,-13.79741 2.51549,-20.72365 0,-10.13658 0,-20.27317 0,-30.40974 13.60474,-0.15892 27.24552,0.32315 40.82699,-0.25072 8.81506,-1.5067 11.94721,-15.70005 4.79393,-21.6532 -5.30807,-4.56127 -12.30998,-2.25159 -18.48951,-2.81946 -9.04381,0 -18.08761,0 -27.13141,0 0,-14.42197 0,-28.84393 0,-43.2659 z"
     id="path26" />
</svg>
