<?xml version="1.0" encoding="UTF-8" standalone="no"?>
<svg
   viewBox="0 0 448 512"
   version="1.1"
   id="svg1"
   sodipodi:docname="alternet-match-case.svg"
   inkscape:version="1.3 (0e150ed6c4, 2023-07-21)"
   xmlns:inkscape="http://www.inkscape.org/namespaces/inkscape"
   xmlns:sodipodi="http://sodipodi.sourceforge.net/DTD/sodipodi-0.dtd"
   xmlns="http://www.w3.org/2000/svg"
   xmlns:svg="http://www.w3.org/2000/svg">
  <defs
     id="defs1" />
  <sodipodi:namedview
     id="namedview1"
     pagecolor="#ffffff"
     bordercolor="#000000"
     borderopacity="0.25"
     inkscape:showpageshadow="2"
     inkscape:pageopacity="0.0"
     inkscape:pagecheckerboard="0"
     inkscape:deskcolor="#d1d1d1"
     inkscape:zoom="1.5898438"
     inkscape:cx="224.23587"
     inkscape:cy="255.99999"
     inkscape:window-width="1920"
     inkscape:window-height="1010"
     inkscape:window-x="-6"
     inkscape:window-y="-6"
     inkscape:window-maximized="1"
     inkscape:current-layer="svg1"
     showgrid="false" />
  <path
     d="M 8.2692705,400.41113 108.60501,106.78185 h 37.2472 L 252.78193,400.41113 H 213.39614 L 182.92116,311.48111 H 73.674623 L 44.981812,400.41113 Z M 83.654739,279.83484 H 172.2282 l -27.26709,-81.31888 q -12.47512,-37.05419 -18.53448,-60.88904 -4.99005,28.24129 -14.07908,56.082 z m 316.155571,94.33793 q -17.82163,17.02488 -34.39574,24.03514 -16.39588,7.01024 -35.28681,7.01024 -31.18783,0 -47.94015,-17.02489 -16.75234,-17.22518 -16.75234,-43.86413 0,-15.62283 6.23757,-28.44158 6.41579,-13.01904 16.57411,-20.83045 10.33654,-7.81143 23.16812,-11.81729 9.44545,-2.8041 28.51459,-5.4079 38.85113,-5.20761 57.2074,-12.41816 0.17823,-7.41083 0.17823,-9.41375 0,-22.03222 -9.08904,-31.0454 -12.29692,-12.21786 -36.53432,-12.21786 -22.63346,0 -33.50466,9.01317 -10.69296,8.81289 -15.86124,31.44599 l -31.36606,-4.80704 q 4.27719,-22.63309 14.07908,-36.45329 9.80191,-14.0205 28.33639,-21.43133 18.53448,-7.61113 42.95011,-7.61113 24.2374,0 39.38577,6.40937 15.14839,6.40938 22.27703,16.22372 7.12866,9.61406 9.98012,24.43572 1.60394,9.21348 1.60394,33.24862 v 48.07027 q 0,50.2735 1.96039,63.69312 2.13859,13.21933 8.19793,25.4372 h -33.50465 q -4.99004,-11.2164 -6.41577,-26.23836 z m -2.67325,-80.51774 q -17.46519,8.01172 -52.39557,13.61992 -19.78199,3.20468 -27.97994,7.21054 -8.19794,4.00586 -12.65336,11.81729 -4.4554,7.61113 -4.4554,17.02489 0,14.42108 9.62369,24.03514 9.80189,9.61406 28.51458,9.61406 18.53449,0 32.97,-9.01319 14.43552,-9.21347 21.20773,-25.0366 5.16827,-12.21786 5.16827,-36.05271 z"
     id="path1"
     style="stroke-width:1.42322" />
</svg>
