<?xml version="1.0" encoding="UTF-8" standalone="no"?>
<svg
   viewBox="0 0 512 512"
   version="1.1"
   id="svg1"
   sodipodi:docname="question.svg"
   width="512"
   height="512"
   inkscape:version="1.3 (0e150ed6c4, 2023-07-21)"
   xmlns:inkscape="http://www.inkscape.org/namespaces/inkscape"
   xmlns:sodipodi="http://sodipodi.sourceforge.net/DTD/sodipodi-0.dtd"
   xmlns="http://www.w3.org/2000/svg"
   xmlns:svg="http://www.w3.org/2000/svg">
  <defs
     id="defs1" />
  <sodipodi:namedview
     id="namedview1"
     pagecolor="#ffffff"
     bordercolor="#000000"
     borderopacity="0.25"
     inkscape:showpageshadow="2"
     inkscape:pageopacity="0.0"
     inkscape:pagecheckerboard="0"
     inkscape:deskcolor="#d1d1d1"
     showgrid="false"
     inkscape:zoom="1.5898438"
     inkscape:cx="160.07862"
     inkscape:cy="256"
     inkscape:window-width="1920"
     inkscape:window-height="1010"
     inkscape:window-x="-6"
     inkscape:window-y="-6"
     inkscape:window-maximized="1"
     inkscape:current-layer="svg1" />
  <!--! Font Awesome Free 6.4.0 by @fontawesome - https://fontawesome.com License - https://fontawesome.com/license/free (Icons: CC BY 4.0, Fonts: SIL OFL 1.1, Code: MIT License) Copyright 2023 Fonticons, Inc. -->
  <path
     d="m 176,160 c 0,-35.3 28.7,-64 64,-64 h 32 c 35.3,0 64,28.7 64,64 v 3.6 c 0,21.8 -11.1,42.1 -29.4,53.8 l -42.2,27.1 c -25.2,16.2 -40.4,44.1 -40.4,74 v 1.5 c 0,17.7 14.3,32 32,32 17.7,0 32,-14.3 32,-32 v -1.4 c 0,-8.2 4.2,-15.8 11,-20.2 l 42.2,-27.1 C 377.8,247.7 400,207.2 400,163.6 V 160 C 400,89.3 342.7,32 272,32 h -32 c -70.7,0 -128,57.3 -128,128 0,17.7 14.3,32 32,32 17.7,0 32,-14.3 32,-32 z m 80,320 a 40,40 0 1 0 0,-80 40,40 0 1 0 0,80 z"
     id="path1" />
</svg>
