<?xml version="1.0" encoding="UTF-8" standalone="no"?>
<svg
   viewBox="0 0 512 512"
   version="1.1"
   id="svg19"
   sodipodi:docname="alternet-zoomin.svg"
   inkscape:version="1.2.2 (732a01da63, 2022-12-09)"
   width="512"
   height="512"
   xmlns:inkscape="http://www.inkscape.org/namespaces/inkscape"
   xmlns:sodipodi="http://sodipodi.sourceforge.net/DTD/sodipodi-0.dtd"
   xmlns="http://www.w3.org/2000/svg"
   xmlns:svg="http://www.w3.org/2000/svg">
  <defs
     id="defs23" />
  <sodipodi:namedview
     id="namedview21"
     pagecolor="#ffffff"
     bordercolor="#000000"
     borderopacity="0.25"
     inkscape:showpageshadow="2"
     inkscape:pageopacity="0.0"
     inkscape:pagecheckerboard="0"
     inkscape:deskcolor="#d1d1d1"
     showgrid="false"
     inkscape:zoom="1.5742188"
     inkscape:cx="191.84118"
     inkscape:cy="256.63523"
     inkscape:window-width="1920"
     inkscape:window-height="1009"
     inkscape:window-x="-8"
     inkscape:window-y="-8"
     inkscape:window-maximized="1"
     inkscape:current-layer="svg19" />
  <!--! Font Awesome Free 6.4.0 by @fontawesome - https://fontawesome.com License - https://fontawesome.com/license/free (Icons: CC BY 4.0, Fonts: SIL OFL 1.1, Code: MIT License) Copyright 2023 Fonticons, Inc. -->
  <path
     d="M 205.75733,143.23863 A 117.77152,108.42078 23.592351 1 1 383.35596,295.23241 117.77152,108.42078 23.592351 1 1 205.75733,143.23863 Z m -1.96096,220.56172 c 74.9979,44.92702 172.40402,36.10714 230.30206,-25.14115 C 499.30918,269.67502 489.69884,160.28036 412.63373,94.325928 335.56862,28.371487 220.22561,30.827679 155.01486,99.811842 97.116822,161.06013 98.18279,254.15514 153.0539,320.37356 l -87.819837,92.90153 c -11.8748,12.56192 -10.130792,32.414 3.90267,44.42422 14.033463,12.01022 34.964997,11.56449 46.839797,-0.99745 z"
     id="path17"
     style="stroke-width:1.00892" />
  <path
     style="stroke-width:0.426424"
     d="m 307.86919,157.86119 c 0.58539,-11.08967 -14.14546,-18.01335 -22.33649,-10.53024 -7.29828,5.99469 -4.34879,15.99722 -4.96234,24.17188 0,11.36803 0,22.73604 0,34.10407 -16.83712,0.17537 -33.71884,-0.35661 -50.52715,0.27668 -10.90945,1.6627 -14.78576,17.32565 -5.93294,23.8952 6.56923,5.03355 15.23474,2.48471 22.88248,3.11139 11.19254,0 22.38507,0 33.57761,0 0.17545,16.82747 -0.35684,33.69956 0.27682,50.49827 1.66366,10.90322 17.33557,14.77732 23.90886,5.92955 5.03643,-6.56548 2.48612,-15.22602 3.11315,-22.86941 0,-11.18614 0,-22.37228 0,-33.55841 16.83711,-0.17537 33.71882,0.35661 50.52713,-0.27668 10.90944,-1.6627 14.78577,-17.32565 5.93293,-23.8952 -6.56922,-5.03355 -15.23473,-2.48472 -22.88246,-3.11139 -11.19254,0 -22.38507,0 -33.5776,0 0,-15.91524 0,-31.83047 0,-47.74571 z"
     id="path26" />
</svg>
