<?xml version="1.0" encoding="UTF-8" standalone="no"?>
<!-- Uploaded to: SVG Repo, www.svgrepo.com, Generator: SVG Repo Mixer Tools -->

<svg
   width="800px"
   height="800px"
   viewBox="0 0 24 24"
   fill="none"
   version="1.1"
   id="svg1"
   sodipodi:docname="alternet-file-open.svg"
   inkscape:version="1.3 (0e150ed6c4, 2023-07-21)"
   xmlns:inkscape="http://www.inkscape.org/namespaces/inkscape"
   xmlns:sodipodi="http://sodipodi.sourceforge.net/DTD/sodipodi-0.dtd"
   xmlns="http://www.w3.org/2000/svg"
   xmlns:svg="http://www.w3.org/2000/svg">
  <defs
     id="defs1" />
  <sodipodi:namedview
     id="namedview1"
     pagecolor="#ffffff"
     bordercolor="#000000"
     borderopacity="0.25"
     inkscape:showpageshadow="2"
     inkscape:pageopacity="0.0"
     inkscape:pagecheckerboard="0"
     inkscape:deskcolor="#d1d1d1"
     showgrid="false"
     inkscape:zoom="1.01625"
     inkscape:cx="400"
     inkscape:cy="400"
     inkscape:window-width="1920"
     inkscape:window-height="1009"
     inkscape:window-x="-8"
     inkscape:window-y="-8"
     inkscape:window-maximized="1"
     inkscape:current-layer="svg1" />
  <path
     fill-rule="evenodd"
     clip-rule="evenodd"
     d="m 0.39207328,5.392121 c 0,-1.9905935 1.54557442,-3.6042977 3.45212642,-3.6042977 h 3.1655195 c 1.2416608,0 2.4306654,0.5237645 3.2970908,1.4523878 L 9.5385057,4.0216108 10.30681,3.2402111 11.58007,4.6049904 c 0.216679,0.2321528 0.513907,0.363097 0.824368,0.363097 h 4.602259 c 2.431104,0 4.421484,1.9678145 4.591098,4.460114 1.564275,0.6320266 2.457685,2.5223006 1.781988,4.2862436 l -2.097512,5.47649 c -0.698941,1.824735 -2.391518,3.021242 -4.273732,3.021242 H 4.9949086 c -1.2827872,0 -2.4447616,-0.549414 -3.2781855,-1.432228 C 0.89878795,19.913476 0.39207328,18.720573 0.39207328,17.406447 Z M 19.244021,9.2084357 c -0.24349,-1.0540769 -1.152665,-1.837483 -2.237324,-1.837483 h -4.602259 c -0.931269,0 -1.823068,-0.3928205 -2.472874,-1.0892909 L 8.6582588,4.9168823 9.4825239,4.0785467 8.6582588,4.9168823 C 8.2250518,4.4525768 7.6305496,4.1906885 7.0097192,4.1906885 H 3.8441997 c -0.6355135,0 -1.1507088,0.5379053 -1.1507088,1.2014325 V 15.540743 L 3.8880763,11.699642 C 4.3500283,10.214192 5.6756449,9.2084357 7.1714398,9.2084357 Z M 3.8791122,19.508834 6.0769891,12.441648 C 6.2309654,11.946536 6.6728376,11.611337 7.1714398,11.611337 H 20.457673 c 0.598254,0 1.007446,0.630872 0.785244,1.210924 l -2.097512,5.47637 c -0.34947,0.912369 -1.195817,1.510681 -2.136866,1.510681 H 4.9949086 c -0.4052222,0 -0.7852898,-0.108729 -1.1157964,-0.300478 z"
     fill="#0f1729"
     id="path1"
     style="fill:#000000;stroke-width:1.1758" />
</svg>
