<?xml version="1.0" encoding="UTF-8" standalone="no"?>
<svg
   viewBox="0 0 384 512"
   version="1.1"
   id="svg19"
   sodipodi:docname="alternet-zoomout.svg"
   inkscape:version="1.2.2 (732a01da63, 2022-12-09)"
   xmlns:inkscape="http://www.inkscape.org/namespaces/inkscape"
   xmlns:sodipodi="http://sodipodi.sourceforge.net/DTD/sodipodi-0.dtd"
   xmlns="http://www.w3.org/2000/svg"
   xmlns:svg="http://www.w3.org/2000/svg">
  <defs
     id="defs23" />
  <sodipodi:namedview
     id="namedview21"
     pagecolor="#ffffff"
     bordercolor="#000000"
     borderopacity="0.25"
     inkscape:showpageshadow="2"
     inkscape:pageopacity="0.0"
     inkscape:pagecheckerboard="0"
     inkscape:deskcolor="#d1d1d1"
     showgrid="false"
     inkscape:zoom="2.2262815"
     inkscape:cx="392.58288"
     inkscape:cy="256.03231"
     inkscape:window-width="1920"
     inkscape:window-height="1009"
     inkscape:window-x="-8"
     inkscape:window-y="-8"
     inkscape:window-maximized="1"
     inkscape:current-layer="svg19" />
  <!--! Font Awesome Free 6.4.0 by @fontawesome - https://fontawesome.com License - https://fontawesome.com/license/free (Icons: CC BY 4.0, Fonts: SIL OFL 1.1, Code: MIT License) Copyright 2023 Fonticons, Inc. -->
  <path
     d="M 145.84792,158.85805 A 93.202802,87.682387 41.969861 1 1 284.43987,283.51486 93.202802,87.682387 41.969861 1 1 145.84792,158.85805 Z m -1.53026,180.8924 c 58.52581,36.84664 134.53825,29.61306 179.71991,-20.61937 50.88826,-56.57696 43.38868,-146.29636 -16.75032,-200.3885 -60.139,-54.09215 -150.14877,-52.077718 -201.03703,4.49924 -45.181658,50.23243 -44.349813,126.58375 -1.53026,180.8924 l -68.531622,76.19265 c -9.266691,10.30259 -7.905727,26.58416 3.045511,36.43427 10.951238,9.85011 27.285495,9.48455 36.552187,-0.81805 z"
     id="path17"
     style="stroke-width:0.807147" />
  <path
     id="path261"
     style="stroke-width:0.588898"
     d="m 167.15528,210.14459 c -8.45205,0 -15.25193,5.83961 -15.25193,13.09762 0,7.258 6.79988,13.09761 15.25193,13.09761 h 91.5116 c 8.45206,0 15.25194,-5.83961 15.25194,-13.09761 0,-7.25801 -6.79988,-13.09762 -15.25194,-13.09762 z" />
</svg>
