<?xml version="1.0" encoding="UTF-8" standalone="no"?>
<svg
   viewBox="0 0 512 512"
   version="1.1"
   id="svg28"
   sodipodi:docname="alternet-add-child.svg"
   inkscape:version="1.2.2 (732a01da63, 2022-12-09)"
   width="512"
   height="512"
   xmlns:inkscape="http://www.inkscape.org/namespaces/inkscape"
   xmlns:sodipodi="http://sodipodi.sourceforge.net/DTD/sodipodi-0.dtd"
   xmlns="http://www.w3.org/2000/svg"
   xmlns:svg="http://www.w3.org/2000/svg">
  <defs
     id="defs32" />
  <sodipodi:namedview
     id="namedview30"
     pagecolor="#ffffff"
     bordercolor="#000000"
     borderopacity="0.25"
     inkscape:showpageshadow="2"
     inkscape:pageopacity="0.0"
     inkscape:pagecheckerboard="0"
     inkscape:deskcolor="#d1d1d1"
     showgrid="false"
     inkscape:zoom="1.1449053"
     inkscape:cx="60.703711"
     inkscape:cy="256.7898"
     inkscape:window-width="1920"
     inkscape:window-height="1009"
     inkscape:window-x="-8"
     inkscape:window-y="-8"
     inkscape:window-maximized="1"
     inkscape:current-layer="svg28" />
  <!--! Font Awesome Free 6.4.0 by @fontawesome - https://fontawesome.com License - https://fontawesome.com/license/free (Icons: CC BY 4.0, Fonts: SIL OFL 1.1, Code: MIT License) Copyright 2023 Fonticons, Inc. -->
  <g
     id="g315"
     transform="translate(65.478731)">
    <path
       d="m 190.84211,210.89709 c 1.22913,-22.44759 -29.70076,-36.46241 -46.89919,-21.3152 -15.32395,12.1344 -9.13102,32.38139 -10.4193,48.92844 0,23.01102 0,46.02203 0,69.03306 -35.352318,0.35499 -70.798302,-0.72186 -106.090157,0.56005 -22.9062301,3.36563 -31.0451711,35.0704 -12.457189,48.36839 13.793179,10.18886 31.987854,5.02952 48.045574,6.29803 23.500594,0 47.001192,0 70.501772,0 0.36843,34.06202 -0.74921,68.21428 0.58126,102.21802 3.49312,22.07019 36.3989,29.91209 50.20064,12.00253 10.57481,-13.28975 5.22003,-30.82035 6.53659,-46.29199 0,-22.64285 0,-45.28571 0,-67.92856 35.35232,-0.35498 70.79831,0.72187 106.09014,-0.56004 22.90622,-3.36564 31.04518,-35.0704 12.45718,-48.3684 -13.79318,-10.18885 -31.98785,-5.02951 -48.04556,-6.29803 -23.50058,0 -47.00117,0 -70.50176,0 0,-32.21544 0,-64.43086 0,-96.6463 z"
       id="path26"
       style="stroke-width:0.879106" />
    <path
       d="m 367.8334,98.743057 c 5.43033,5.506913 8.53696,13.157063 8.501,21.239753 -0.0359,8.0827 -3.21051,15.69985 -8.68958,21.14947 l -79.69286,78.61396 c -10.79168,10.63068 -27.56586,9.82408 -37.34852,-1.99239 -9.78267,-11.81646 -9.04079,-29.95414 1.83354,-40.58438 L 281.74086,148.22504 32.394424,146.91519 C 17.765885,146.83831 6.0044696,133.93376 6.0751916,118.0378 6.1459116,102.14184 18.021585,89.361426 32.650126,89.438275 L 281.99657,90.748118 252.86893,61.496742 C 242.17234,50.753186 241.50962,32.518319 251.39657,20.894986 261.28352,9.2716522 278.06449,8.5515162 288.76108,19.295073 l 78.98966,79.447544 z"
       id="path119"
       style="stroke-width:0.86154" />
  </g>
</svg>
