<?xml version="1.0" encoding="UTF-8" standalone="no"?>
<svg
   viewBox="0 0 512 512"
   version="1.1"
   id="svg1"
   sodipodi:docname="alternet-replace-all.svg"
   inkscape:version="1.3 (0e150ed6c4, 2023-07-21)"
   xmlns:inkscape="http://www.inkscape.org/namespaces/inkscape"
   xmlns:sodipodi="http://sodipodi.sourceforge.net/DTD/sodipodi-0.dtd"
   xmlns="http://www.w3.org/2000/svg"
   xmlns:svg="http://www.w3.org/2000/svg">
  <defs
     id="defs1" />
  <sodipodi:namedview
     id="namedview1"
     pagecolor="#ffffff"
     bordercolor="#000000"
     borderopacity="0.25"
     inkscape:showpageshadow="2"
     inkscape:pageopacity="0.0"
     inkscape:pagecheckerboard="0"
     inkscape:deskcolor="#d1d1d1"
     showgrid="false"
     inkscape:zoom="1.5898438"
     inkscape:cx="369.53316"
     inkscape:cy="255.99999"
     inkscape:window-width="1920"
     inkscape:window-height="1010"
     inkscape:window-x="-6"
     inkscape:window-y="-6"
     inkscape:window-maximized="1"
     inkscape:current-layer="svg1" />
  <!--! Font Awesome Free 6.4.0 by @fontawesome - https://fontawesome.com License - https://fontawesome.com/license/free (Icons: CC BY 4.0, Fonts: SIL OFL 1.1, Code: MIT License) Copyright 2023 Fonticons, Inc. -->
  <path
     d="M 39.997196,268.34092 V 23.464209 H 90.265992 V 111.6599 q 23.255958,-24.721501 55.098768,-24.721501 34.70518,0 57.42445,23.552251 22.71932,23.38522 22.71932,67.31601 0,45.43416 -23.25597,69.98869 -23.07709,24.55447 -56.1722,24.55447 -16.2792,0 -32.20064,-7.51672 -15.742478,-7.68368 -27.191618,-22.55002 v 26.05784 z m 49.910966,-92.5387 q 0,27.5612 9.30242,40.75714 13.059138,18.70815 34.705118,18.70815 16.63695,0 28.26498,-13.19595 11.8069,-13.36296 11.8069,-41.92633 0,-30.40079 -11.8069,-43.76383 -11.8069,-13.53 -30.23281,-13.53 -18.06815,0 -30.05393,13.19595 -11.985778,13.02892 -11.985778,39.75487 z"
     id="text4"
     style="font-weight:bold;font-size:53.3333px;font-family:Arial;-inkscape-font-specification:'Arial Bold';stroke-width:260.161"
     aria-label="b" />
  <path
     d="m 204.07187,353.45974 -49.97091,9.02002 q -2.5256,-14.97323 -11.54562,-22.55005 -8.83962,-7.57681 -23.09125,-7.57681 -18.94204,0 -30.307264,13.16922 -11.184824,12.98883 -11.184824,43.6569 0,34.09567 11.365224,48.1669 11.545624,14.07123 30.848464,14.07123 14.43203,0 23.63245,-8.11802 9.20042,-8.29841 12.98883,-28.32286 l 49.79051,8.47882 q -7.75722,34.27608 -29.76607,51.77491 -22.00884,17.49884 -58.99092,17.49884 -42.033293,0 -67.108946,-26.51886 -24.895254,-26.51885 -24.895254,-73.42295 0,-47.44531 25.075654,-73.78376 25.075654,-26.51886 67.830546,-26.51886 34.99767,0 55.56332,15.15363 20.74604,14.97324 29.76606,45.8217 z"
     id="text5"
     style="font-weight:bold;font-size:369.46px;font-family:Arial;-inkscape-font-specification:'Arial Bold';stroke-width:271.505"
     transform="scale(1.0107977,0.98931765)"
     aria-label="c" />
  <path
     d="m 336.13477,432.66484 c 10.52378,11.07074 27.8943,11.42014 38.7628,0.7797 10.86849,-10.64046 11.1484,-28.26994 0.62462,-39.34068 l -21.38571,-22.40889 16.00143,0.32185 C 445.78099,373.53834 508.03572,312.58985 509.25463,235.8191 510.47354,159.04834 450.19334,95.635153 374.55026,94.113636 L 265.02182,91.910534 c -15.14573,-0.304642 -27.57929,11.868036 -27.82335,27.239546 -0.24405,15.37152 11.79515,28.03645 26.94088,28.3411 l 109.52843,2.20309 c 45.35163,0.91222 81.55343,38.99557 80.82263,85.02328 -0.73079,46.02771 -38.11841,82.63086 -83.47003,81.71864 l -16.00142,-0.32187 22.08478,-21.62139 c 10.8685,-10.64044 11.1484,-28.26993 0.62461,-39.34067 -10.52377,-11.07074 -27.89429,-11.42014 -38.76278,-0.77968 l -69.55837,68.09885 c -10.8685,10.64046 -11.1484,28.26994 -0.62462,39.34068 z"
     id="path4"
     style="stroke-width:0.862183" />
</svg>
