<?xml version="1.0" encoding="UTF-8" standalone="no"?>
<svg
   viewBox="0 0 512 512"
   version="1.1"
   id="svg19"
   sodipodi:docname="ButtonImageDisabled.svg"
   inkscape:version="1.2.2 (732a01da63, 2022-12-09)"
   xmlns:inkscape="http://www.inkscape.org/namespaces/inkscape"
   xmlns:sodipodi="http://sodipodi.sourceforge.net/DTD/sodipodi-0.dtd"
   xmlns="http://www.w3.org/2000/svg"
   xmlns:svg="http://www.w3.org/2000/svg">
  <defs
     id="defs23" />
  <sodipodi:namedview
     id="namedview21"
     pagecolor="#ffffff"
     bordercolor="#000000"
     borderopacity="0.25"
     inkscape:showpageshadow="2"
     inkscape:pageopacity="0.0"
     inkscape:pagecheckerboard="0"
     inkscape:deskcolor="#d1d1d1"
     showgrid="false"
     inkscape:zoom="1.5742188"
     inkscape:cx="255.68238"
     inkscape:cy="256"
     inkscape:window-width="1920"
     inkscape:window-height="1009"
     inkscape:window-x="-8"
     inkscape:window-y="-8"
     inkscape:window-maximized="1"
     inkscape:current-layer="svg19" />
  <!--! Font Awesome Free 6.4.0 by @fontawesome - https://fontawesome.com License - https://fontawesome.com/license/free (Icons: CC BY 4.0, Fonts: SIL OFL 1.1, Code: MIT License) Copyright 2023 Fonticons, Inc. -->
  <path
     d="M464 256A208 208 0 1 0 48 256a208 208 0 1 0 416 0zM0 256a256 256 0 1 1 512 0A256 256 0 1 1 0 256zM174.6 384.1c-4.5 12.5-18.2 18.9-30.7 14.4s-18.9-18.2-14.4-30.7C146.9 319.4 198.9 288 256 288s109.1 31.4 126.6 79.9c4.5 12.5-2 26.2-14.4 30.7s-26.2-2-30.7-14.4C328.2 358.5 297.2 336 256 336s-72.2 22.5-81.4 48.1zM144.4 208a32 32 0 1 1 64 0 32 32 0 1 1 -64 0zm192-32a32 32 0 1 1 0 64 32 32 0 1 1 0-64z"
     id="path17" />
  <path
     style="fill:#808080;stroke-width:0.635236"
     d="m 167.067,238.03819 c -10.89437,-3.72786 -18.47788,-11.71851 -21.26059,-22.40206 -4.16921,-16.00669 5.77477,-33.31165 21.85231,-38.02837 4.84974,-1.42279 12.91742,-1.31104 17.96783,0.24887 19.99368,6.17542 28.5192,29.77367 17.12536,47.40217 -7.58482,11.73519 -22.80623,17.18624 -35.68491,12.77939 z"
     id="path336" />
  <path
     style="fill:#808080;stroke-width:0.635236"
     d="m 329.05211,238.77159 c -6.20712,-1.66865 -13.4692,-6.20807 -17.01257,-10.63431 -14.31891,-17.8866 -5.98366,-44.26885 15.98797,-50.60421 5.14021,-1.48214 14.54811,-1.04596 19.58921,0.90822 7.86513,3.0489 15.29011,10.47388 18.33902,18.33901 1.95418,5.04111 2.39036,14.449 0.90821,19.58921 -3.11878,10.81625 -11.77471,19.29712 -22.64967,22.19159 -3.80845,1.01366 -11.76371,1.1241 -15.16217,0.21049 z"
     id="path338" />
  <path
     style="fill:#808080;stroke-width:0.635236"
     d="M 244.56576,511.28447 C 202.8224,509.65399 160.7848,496.95276 124.40408,474.97886 60.660089,436.47757 16.576202,372.19563 4.1762814,299.66592 1.2902703,282.78504 0.9528536,278.21425 0.9528536,256 c 0,-22.20032 0.3444615,-26.87433 3.2068325,-43.51365 C 14.545832,152.1104 46.850332,96.873424 94.536627,57.95218 152.29646,10.808987 227.99349,-8.7433954 301.54336,4.4827865 406.56984,23.369285 489.86686,107.30065 507.82372,212.33408 c 2.90789,17.00886 3.22428,21.38247 3.20478,44.30116 -0.0198,23.17468 -0.6737,30.81716 -4.13879,48.36667 -14.51954,73.53682 -60.85747,137.49203 -126.06589,173.99509 -34.20226,19.1461 -74.89582,30.89536 -111.16625,32.09651 -5.2407,0.17355 -10.52903,0.38521 -11.75186,0.47036 -1.22283,0.0851 -7.22581,-0.0406 -13.33995,-0.2794 z m 36.84367,-48.49869 c 58.03219,-7.3589 108.79404,-37.36431 143.4646,-84.80215 20.27353,-27.73915 33.23839,-60.80143 37.99463,-96.89182 1.51541,-11.4989 1.51541,-38.68472 0,-50.18362 -5.26432,-39.9457 -19.80675,-74.38764 -44.6579,-105.76675 -5.51472,-6.96334 -24.38886,-25.837477 -31.3522,-31.3522 -31.42559,-24.887964 -65.76188,-39.385779 -105.76675,-44.657903 -11.4989,-1.515406 -38.68472,-1.515406 -50.18362,0 -49.14356,6.476484 -90.81769,27.312995 -124.82746,62.412073 -31.685752,32.70061 -50.811017,72.78679 -56.949393,119.36478 -1.515406,11.4989 -1.515406,38.68472 0,50.18362 5.266109,39.95923 19.992881,74.81293 44.689741,105.76675 5.806188,7.27718 20.098232,21.87106 27.508942,28.0899 33.86123,28.41528 73.44899,44.79509 117.83623,48.75584 8.93842,0.79759 32.80182,0.27871 42.24318,-0.91852 z"
     id="path340" />
  <path
     style="fill:#808080;stroke-width:0.635236"
     d="m 145.7866,398.71017 c -6.8569,-2.27568 -12.45524,-7.16615 -15.28893,-13.35575 -3.45854,-7.55444 -2.64652,-14.10006 3.28078,-26.44623 5.8593,-12.20453 11.31238,-19.99286 20.83984,-29.76438 20.24239,-20.76094 47.48683,-34.26967 79.14846,-39.24453 10.28213,-1.61559 34.18437,-1.61559 44.4665,0 8.86909,1.39356 21.90755,4.68031 29.22084,7.36602 12.33976,4.53161 27.09057,12.5736 37.16129,20.25998 6.3344,4.83467 17.32734,15.91731 22.22083,22.40215 8.69635,11.52439 16.06579,26.78422 16.68993,34.55968 1.38429,17.24532 -17.23938,30.23865 -32.99985,23.02327 -6.24004,-2.85678 -8.88328,-5.91724 -13.8023,-15.98089 -2.40977,-4.93005 -5.80773,-10.8218 -7.55103,-13.09277 -14.24567,-18.55763 -38.61286,-30.62263 -65.23664,-32.30081 -20.29495,-1.27925 -38.17581,2.14488 -54.22901,10.38469 -15.76811,8.09347 -27.38133,19.72036 -33.87028,33.91012 -3.79085,8.28968 -3.81162,8.32538 -6.74692,11.59433 -4.01477,4.47112 -9.62949,7.06028 -15.88057,7.32313 -2.91645,0.12264 -5.90501,-0.13423 -7.42294,-0.63801 z"
     id="path342" />
</svg>
